<?xml version="1.0" standalone="no"?>
<!DOCTYPE svg PUBLIC "-//W3C//DTD SVG 20010904//EN"
 "http://www.w3.org/TR/2001/REC-SVG-20010904/DTD/svg10.dtd">
<svg version="1.0" xmlns="http://www.w3.org/2000/svg"
 width="331.000000pt" height="331.000000pt" viewBox="0 0 331.000000 331.000000"
 preserveAspectRatio="xMidYMid meet">
<metadata>
Created by potrace 1.11, written by Peter Selinger 2001-2013
</metadata>
<g transform="translate(0.000000,331.000000) scale(0.100000,-0.100000)"
fill="#000000" stroke="none">
<path d="M1002 3294 c-98 -26 -169 -90 -217 -197 -19 -40 -540 -2096 -686
-2702 -33 -139 -36 -213 -10 -271 82 -181 382 -155 498 43 30 52 73 205 174
621 61 250 76 301 89 296 169 -69 525 -92 705 -45 132 34 351 156 443 248 19
19 26 16 44 -15 51 -86 174 -174 303 -217 290 -98 517 -30 670 201 81 122 175
345 204 486 15 69 9 91 -25 106 -34 16 -155 15 -176 -2 -11 -8 -27 -53 -42
-116 -86 -353 -187 -518 -328 -534 -89 -11 -128 47 -128 188 0 75 18 157 176
787 237 951 225 887 182 977 -85 179 -392 145 -501 -56 -19 -36 -79 -256 -207
-772 -99 -397 -189 -739 -200 -759 -68 -134 -312 -312 -480 -351 -131 -31
-286 -10 -368 50 -82 59 -121 151 -127 295 -5 127 15 241 101 577 127 496 222
891 227 939 9 85 -43 177 -118 210 -56 25 -138 30 -203 13z"/>
</g>
</svg>
