<?xml version="1.0" encoding="UTF-8" standalone="no"?>
<svg
   xmlns:dc="http://purl.org/dc/elements/1.1/"
   xmlns:cc="http://creativecommons.org/ns#"
   xmlns:rdf="http://www.w3.org/1999/02/22-rdf-syntax-ns#"
   xmlns:svg="http://www.w3.org/2000/svg"
   xmlns="http://www.w3.org/2000/svg"
   xmlns:xlink="http://www.w3.org/1999/xlink"
   xmlns:sodipodi="http://sodipodi.sourceforge.net/DTD/sodipodi-0.dtd"
   xmlns:inkscape="http://www.inkscape.org/namespaces/inkscape"
   xml:space="preserve"
   width="600px"
   height="300px"
   viewBox="0 0 600 300"
   id="svg2"
   sodipodi:version="0.32"
   inkscape:version="0.46"
   sodipodi:docname="Flag_of_Adygea.svg"
   inkscape:output_extension="org.inkscape.output.svg.inkscape"><metadata
     id="metadata45"><rdf:RDF><cc:Work
         rdf:about=""><dc:format>image/svg+xml</dc:format><dc:type
           rdf:resource="http://purl.org/dc/dcmitype/StillImage" /></cc:Work></rdf:RDF></metadata><sodipodi:namedview
     inkscape:window-height="850"
     inkscape:window-width="1440"
     inkscape:pageshadow="2"
     inkscape:pageopacity="0.0"
     guidetolerance="10.0"
     gridtolerance="10.0"
     objecttolerance="10.0"
     borderopacity="1.0"
     bordercolor="#666666"
     pagecolor="#ffffff"
     id="base"
     showgrid="false"
     inkscape:zoom="0.70710678"
     inkscape:cx="213.15152"
     inkscape:cy="329.4772"
     inkscape:window-x="-8"
     inkscape:window-y="-8"
     inkscape:current-layer="svg2" /><defs
     id="defs4"><inkscape:perspective
       sodipodi:type="inkscape:persp3d"
       inkscape:vp_x="0 : 150 : 1"
       inkscape:vp_y="0 : 1000 : 0"
       inkscape:vp_z="600 : 150 : 1"
       inkscape:persp3d-origin="300 : 100 : 1"
       id="perspective47" /><g
       id="star"
       style="fill:#ae3118"><path
         d="M 15,-4.88 L -9.27,14.26 L 0,-15.76 L 9.27,14.26 L -15,-4.88 L 15,-4.88 z"
         id="path7" /></g><g
       id="arrow"
       style="fill:#ae3118"><path
         d="M -6,-50 L 0,-85 L 6,-50 L 3,-50 L 3,50 L 6,56 L 6,81 L 0,71 L -6,81 L -6,56 L -3,50 L -3,-50 L -6,-50 z"
         id="path10" /></g><inkscape:perspective
       id="perspective2427"
       inkscape:persp3d-origin="372.04724 : 350.78739 : 1"
       inkscape:vp_z="744.09448 : 526.18109 : 1"
       inkscape:vp_y="0 : 1000 : 0"
       inkscape:vp_x="0 : 526.18109 : 1"
       sodipodi:type="inkscape:persp3d" /></defs><rect
     fill="#2a6b11"
     width="600"
     height="300"
     x="0"
     y="0"
     id="rect12"
     style="fill:#f3ef18;fill-opacity:1" /><use
     x="300"
     y="95"
     xlink:href="#star"
     id="use34"
     style="fill-opacity:1"
     transform="translate(0,10)"
     width="600"
     height="300" /><use
     x="225"
     y="95"
     xlink:href="#star"
     id="use32"
     style="fill-opacity:1"
     transform="translate(10.5,10)"
     width="600"
     height="300" /><use
     x="375"
     y="95"
     xlink:href="#star"
     id="use36"
     style="fill-opacity:1"
     transform="translate(-10.5,10)"
     width="600"
     height="300" /><use
     x="300"
     y="200"
     xlink:href="#arrow"
     id="use38"
     style="fill-opacity:1" /><use
     xlink:href="#arrow"
     transform="translate(300, 200) rotate(45)"
     id="use40"
     style="fill-opacity:1" /><use
     xlink:href="#arrow"
     transform="translate(300, 200) rotate(-45)"
     id="use42"
     style="fill-opacity:1" /><use
     x="300"
     y="30"
     xlink:href="#star"
     id="use22"
     style="fill-opacity:1"
     transform="translate(0,14.495689)"
     width="600"
     height="300" /><use
     height="300"
     width="600"
     transform="matrix(0.9912038,-0.1323444,0.1323444,0.9912038,-66.095175,58.893203)"
     style="fill-opacity:1"
     id="use3629"
     xlink:href="#star"
     y="30"
     x="300" /><use
     x="300"
     y="30"
     xlink:href="#star"
     id="use3631"
     style="fill-opacity:1"
     transform="matrix(0.9566292,-0.2913084,0.2913084,0.9566292,-118.5221,120.84185)"
     width="600"
     height="300" /><use
     height="300"
     width="600"
     transform="matrix(0.8821432,-0.4709814,0.4709814,0.8821432,-160.18487,201.08189)"
     style="fill-opacity:1"
     id="use3633"
     xlink:href="#star"
     y="30"
     x="300" /><use
     x="300"
     y="30"
     xlink:href="#star"
     id="use3635"
     style="fill-opacity:1"
     transform="matrix(0.7069417,-0.7072719,0.7072719,0.7069417,-165.32302,314.08973)"
     width="600"
     height="300" /><use
     x="300"
     y="30"
     xlink:href="#star"
     id="use3648"
     style="fill-opacity:1"
     transform="matrix(-0.9912038,-0.1323444,-0.1323444,0.9912038,666.09518,58.893203)"
     width="600"
     height="300" /><use
     height="300"
     width="600"
     transform="matrix(-0.9566292,-0.2913084,-0.2913084,0.9566292,718.5221,120.84185)"
     style="fill-opacity:1"
     id="use3650"
     xlink:href="#star"
     y="30"
     x="300" /><use
     x="300"
     y="30"
     xlink:href="#star"
     id="use3652"
     style="fill-opacity:1"
     transform="matrix(-0.8821432,-0.4709814,-0.4709814,0.8821432,760.18487,201.08189)"
     width="600"
     height="300" /><use
     height="300"
     width="600"
     transform="matrix(-0.7069417,-0.7072719,-0.7072719,0.7069417,765.32302,314.08973)"
     style="fill-opacity:1"
     id="use3654"
     xlink:href="#star"
     y="30"
     x="300" /></svg>