<?xml version="1.0" encoding="utf-8"?>
<!-- Generator: Adobe Illustrator 12.0.1, SVG Export Plug-In . SVG Version: 6.00 Build 51448)  -->
<!DOCTYPE svg PUBLIC "-//W3C//DTD SVG 1.1//EN" "http://www.w3.org/Graphics/SVG/1.1/DTD/svg11.dtd" [
	<!ENTITY ns_svg "http://www.w3.org/2000/svg">
	<!ENTITY ns_xlink "http://www.w3.org/1999/xlink">
]>
<svg  version="1.1" id="Layer_1" xmlns="&ns_svg;" xmlns:xlink="&ns_xlink;" width="432" height="216" viewBox="0 0 432 216"
	 overflow="visible" enable-background="new 0 0 432 216" xml:space="preserve">
<g id="g13260" transform="translate(0.000000,-752.3622)">
	<rect id="rect5983" y="752.362" fill="#001DA3" width="432" height="129.601"/>
	<path id="path10354" fill="#FFDE36" d="M74.086,860.507l-9.707-6.809l-9.549,6.816l3.476-11.335l-9.433-6.976l11.855-0.197
		l3.719-11.127l3.851,11.214l11.731,0.098l-9.475,7.128L74.086,860.507z"/>
	<path id="path10352" fill="#FFDE36" d="M129.094,827.531l-9.707-6.809l-9.549,6.816l3.476-11.335l-9.433-6.976l11.855-0.197
		l3.719-11.127l3.851,11.214l11.732,0.098l-9.476,7.128L129.094,827.531z"/>
	<path id="path8170" fill="#FFDE36" d="M74.115,795.519l-9.707-6.809l-9.549,6.816l3.476-11.336l-9.433-6.975l11.855-0.197
		l3.719-11.127l3.851,11.214l11.732,0.099l-9.476,7.128L74.115,795.519z"/>
	<rect id="rect4520" y="925.162" fill="#E80000" width="432" height="43.2"/>
	<rect id="rect6711" y="881.963" fill="#FFFFFF" width="432" height="43.199"/>
</g>
</svg>
