<?xml version="1.0" encoding="UTF-8" standalone="no"?>
<!-- Created with Inkscape (http://www.inkscape.org/) -->

<svg
   xmlns:dc="http://purl.org/dc/elements/1.1/"
   xmlns:cc="http://creativecommons.org/ns#"
   xmlns:rdf="http://www.w3.org/1999/02/22-rdf-syntax-ns#"
   xmlns:svg="http://www.w3.org/2000/svg"
   xmlns="http://www.w3.org/2000/svg"
   xmlns:sodipodi="http://sodipodi.sourceforge.net/DTD/sodipodi-0.dtd"
   xmlns:inkscape="http://www.inkscape.org/namespaces/inkscape"
   width="900"
   height="600"
   id="svg20210"
   version="1.1"
   inkscape:version="0.48.5 r10040"
   sodipodi:docname="purplewhitegothicflag.svg"
   inkscape:export-filename="C:\Users\Mapeldorn\purplewhitegothicflag.png"
   inkscape:export-xdpi="90"
   inkscape:export-ydpi="90">
  <defs
     id="defs20212">
    <clipPath
       clipPathUnits="userSpaceOnUse"
       id="clipPath3970">
      <path
         id="path3972"
         d="m -287.71098,220.93361 v 600 H 727.71097 v -600 z"
         inkscape:connector-curvature="0"
         style="fill:#800080" />
    </clipPath>
    <clipPath
       clipPathUnits="userSpaceOnUse"
       id="clipPath20187">
      <path
         id="path20189"
         d="m -287.71098,220.93361 v 600 H 727.71097 v -600 z"
         inkscape:connector-curvature="0"
         style="fill:#800080" />
    </clipPath>
  </defs>
  <sodipodi:namedview
     id="base"
     pagecolor="#ffffff"
     bordercolor="#666666"
     borderopacity="1.0"
     inkscape:pageopacity="0.0"
     inkscape:pageshadow="2"
     inkscape:zoom="0.57373418"
     inkscape:cx="494.84899"
     inkscape:cy="212.68128"
     inkscape:document-units="px"
     inkscape:current-layer="g20319"
     showgrid="false"
     showguides="true"
     inkscape:guide-bbox="true"
     fit-margin-top="0"
     fit-margin-left="0"
     fit-margin-right="0"
     fit-margin-bottom="0"
     inkscape:window-width="1366"
     inkscape:window-height="705"
     inkscape:window-x="-8"
     inkscape:window-y="-8"
     inkscape:window-maximized="1" />
  <metadata
     id="metadata20215">
    <rdf:RDF>
      <cc:Work
         rdf:about="">
        <dc:format>image/svg+xml</dc:format>
        <dc:type
           rdf:resource="http://purl.org/dc/dcmitype/StillImage" />
        <dc:title></dc:title>
      </cc:Work>
    </rdf:RDF>
  </metadata>
  <g
     inkscape:label="Layer 1"
     inkscape:groupmode="layer"
     id="layer1"
     transform="translate(-52.293865,-7.900609)">
    <g
       id="g20319">
      <g
         style="fill:#800080;fill-opacity:1"
         transform="translate(260.00001,-211.42857)"
         clip-path="url(#clipPath3970)"
         id="g3965" />
      <g
         id="g20353">
        <rect
           y="7.900609"
           x="52.293865"
           height="600"
           width="900"
           id="rect20336"
           style="fill:#800080;fill-opacity:1;stroke:none" />
        <g
           transform="translate(0,-1.6044281)"
           id="g20338">
          <g
             style="fill:#ffff00;stroke:#ffff00;stroke-width:4.16780901;stroke-opacity:1"
             transform="matrix(2.1170667,0,0,2.1170667,38.478568,-757.2121)"
             id="g3984">
            <path
               sodipodi:nodetypes="ccccccccccccccccccc"
               inkscape:connector-curvature="0"
               id="path3217"
               d="m 218.83594,430.95742 c -4.13609,-8.07271 -26.50499,-10.03425 -33.46335,5.57724 26.24566,-6.93861 14.62515,31.8897 13.20571,44.22159 -0.48195,1.96805 -1.57996,1.60141 -2.97765,0.11085 -14.97885,-14.87599 -36.1275,1.31346 -28.25701,22.25551 2.50455,12.74798 5.19526,39.18231 -9.50235,55.01364 -5.57579,4.9221 2.93191,9.0567 8.75205,7.25176 12.16245,-3.33781 19.04266,-9.31665 26.19556,-15.77443 0.46139,15.79018 -9.81795,46.01817 -9.4677,64.55457 0.6519,8.04495 -0.9969,16.34685 22.33215,13.51275 7.78485,6.8586 18.603,7.84905 26.28915,0 23.32905,2.8341 21.68025,-5.4678 22.33215,-13.51275 0.35025,-18.5364 -9.9291,-48.76439 -9.18165,-64.55457 7.4388,6.45777 14.319,12.43662 26.48145,15.77443 5.82015,1.80494 14.32785,-2.32965 8.7522,-7.25176 -14.69775,-15.83133 -12.00705,-42.26566 -9.50235,-55.01364 7.87035,-20.94205 -11.004,-38.92706 -25.9827,-24.05107 -1.3977,1.49054 -2.4957,1.85717 -3.1128,-0.1374 -5.92515,-17.3235 10.53525,-46.39908 -22.89285,-47.97673 z"
               style="fill:#ffffff;fill-opacity:1;stroke:#ffffff;stroke-width:4.16780901;stroke-opacity:1" />
            <path
               sodipodi:type="inkscape:offset"
               inkscape:radius="-4.1079264"
               inkscape:original="M 1702.0312 2631.6875 C 1670.2724 2631.6875 1644.5312 2655.8355 1644.5312 2685.5938 C 1644.5312 2715.352 1670.2724 2739.4688 1702.0312 2739.4688 C 1733.7901 2739.4688 1759.5312 2715.352 1759.5312 2685.5938 C 1759.5312 2655.8355 1733.7901 2631.6875 1702.0312 2631.6875 z "
               style="fill:#ffffff;fill-opacity:1;fill-rule:nonzero;stroke:#ffffff;stroke-width:5.71751547;stroke-opacity:1"
               id="path3221"
               d="m 1702.0312,2635.7812 c -29.6764,0 -53.4062,22.4232 -53.4062,49.8126 0,27.3892 23.7271,49.7812 53.4062,49.7812 29.6793,0 53.4063,-22.392 53.4063,-49.7812 0,-27.3894 -23.7297,-49.8126 -53.4063,-49.8126 z"
               transform="matrix(0.70562174,0,0,0.75305893,-981.90632,-1504.9461)" />
          </g>
          <path
             transform="matrix(2.4438458,0,0,2.4790089,-705.65404,-323.12625)"
             d="m 532.17916,266.98486 c 0,20.63339 -16.96734,37.36006 -37.8976,37.36006 -20.93027,0 -37.89761,-16.72667 -37.89761,-37.36006 0,-20.63338 16.96734,-37.36005 37.89761,-37.36005 20.93026,0 37.8976,16.72667 37.8976,37.36005 z"
             sodipodi:ry="37.360054"
             sodipodi:rx="37.897606"
             sodipodi:cy="266.98486"
             sodipodi:cx="494.28156"
             id="path5627"
             style="fill:#ffffff;stroke:#800080;stroke-width:6;stroke-miterlimit:4;stroke-opacity:1;stroke-dasharray:none"
             sodipodi:type="arc" />
          <g
             transform="matrix(0.29980052,0,0,0.29980052,644.32421,196.07583)"
             id="g5618"
             style="fill:#800080;stroke:#800080">
            <g
               id="g5611"
               style="fill:#800080;stroke:#800080">
              <path
                 sodipodi:nodetypes="ccc"
                 transform="translate(-287.71097,169.50503)"
                 inkscape:connector-curvature="0"
                 id="path5595"
                 d="M -221.4246,266.84738 C -229.3352,206.48276 -279.57013,96.819633 -418.65248,71.956709 -393.84435,210.98426 -284.18122,261.21919 -223.8166,269.12979"
                 style="fill:#800080;stroke:#800080;stroke-width:1px;stroke-linecap:butt;stroke-linejoin:miter;stroke-opacity:1" />
              <path
                 style="fill:#800080;stroke:#800080;stroke-width:1px;stroke-linecap:butt;stroke-linejoin:miter;stroke-opacity:1"
                 d="m -438.36345,436.35241 c 7.9106,-60.36462 58.14553,-170.02775 197.22788,-194.89067 -24.80813,139.02755 -134.47126,189.26248 -194.83588,197.17308"
                 id="path5599"
                 inkscape:connector-curvature="0"
                 sodipodi:nodetypes="ccc" />
              <path
                 style="fill:#800080;stroke:#800080;stroke-width:1px;stroke-linecap:butt;stroke-linejoin:miter;stroke-opacity:1"
                 d="m -509.13557,523.74415 c -7.9106,60.36462 -58.14553,170.02775 -197.22788,194.89067 24.80813,-139.02755 134.47126,-189.26248 194.83588,-197.17308"
                 id="path5601"
                 inkscape:connector-curvature="0"
                 sodipodi:nodetypes="ccc" />
              <path
                 sodipodi:nodetypes="ccc"
                 inkscape:connector-curvature="0"
                 id="path5603"
                 d="m -438.36345,523.74415 c 7.9106,60.36462 58.14553,170.02775 197.22788,194.89067 C -265.9437,579.60727 -375.60683,529.37234 -435.97145,521.46174"
                 style="fill:#800080;stroke:#800080;stroke-width:1px;stroke-linecap:butt;stroke-linejoin:miter;stroke-opacity:1" />
              <path
                 transform="matrix(0.947552,0,0,0.94143557,-301.15607,186.74266)"
                 d="m -123.24984,312.03665 c 0,32.56388 -26.22793,58.96212 -58.58172,58.96212 -32.35379,0 -58.58171,-26.39824 -58.58171,-58.96212 0,-32.56388 26.22792,-58.96211 58.58171,-58.96211 32.35379,0 58.58172,26.39823 58.58172,58.96211 z"
                 sodipodi:ry="58.962116"
                 sodipodi:rx="58.581715"
                 sodipodi:cy="312.03665"
                 sodipodi:cx="-181.83156"
                 id="path5605"
                 style="fill:#800080;stroke:#800080;stroke-width:6;stroke-miterlimit:4;stroke-opacity:1;stroke-dasharray:none"
                 sodipodi:type="arc" />
            </g>
            <path
               inkscape:connector-curvature="0"
               id="path5609"
               d="m -462.4239,804.5019 0,-646.68126 -11.32561,-10.65122 -11.32561,10.65122 0,646.68126 z"
               style="fill:#800080;stroke:#800080;stroke-width:1px;stroke-linecap:butt;stroke-linejoin:miter;stroke-opacity:1"
               sodipodi:nodetypes="cccccc" />
          </g>
          <path
             id="path4763"
             d="m 443.88753,31.278466 a 61.187598,61.187598 0 1 0 116.81267,0 61.187598,61.187598 0 0 1 -116.81267,0 z"
             inkscape:connector-curvature="0"
             style="fill:#ffffff;fill-opacity:1;stroke:none" />
        </g>
      </g>
    </g>
  </g>
</svg>
