<?xml version="1.0" encoding="UTF-8" standalone="no"?>
<svg
   xmlns:dc="http://purl.org/dc/elements/1.1/"
   xmlns:cc="http://creativecommons.org/ns#"
   xmlns:rdf="http://www.w3.org/1999/02/22-rdf-syntax-ns#"
   xmlns:svg="http://www.w3.org/2000/svg"
   xmlns="http://www.w3.org/2000/svg"
   xmlns:sodipodi="http://sodipodi.sourceforge.net/DTD/sodipodi-0.dtd"
   xmlns:inkscape="http://www.inkscape.org/namespaces/inkscape"
   version="1.0"
   width="409.000000pt"
   height="268.000000pt"
   viewBox="0 0 409.000000 268.000000"
   preserveAspectRatio="xMidYMid meet"
   id="svg2"
   inkscape:version="0.48.4 r9939"
   sodipodi:docname="Vales_de_Miranda.svg">
  <defs
     id="defs18" />
  <sodipodi:namedview
     pagecolor="#ffffff"
     bordercolor="#666666"
     borderopacity="1"
     objecttolerance="10"
     gridtolerance="10"
     guidetolerance="10"
     inkscape:pageopacity="0"
     inkscape:pageshadow="2"
     inkscape:window-width="767"
     inkscape:window-height="480"
     id="namedview16"
     showgrid="false"
     inkscape:zoom="0.67872861"
     inkscape:cx="255.625"
     inkscape:cy="167.5"
     inkscape:window-x="231"
     inkscape:window-y="154"
     inkscape:window-maximized="0"
     inkscape:current-layer="svg2" />
  <metadata
     id="metadata4">
Created by potrace 1.11, written by Peter Selinger 2001-2013
<rdf:RDF>
  <cc:Work
     rdf:about="">
    <dc:format>image/svg+xml</dc:format>
    <dc:type
       rdf:resource="http://purl.org/dc/dcmitype/StillImage" />
  </cc:Work>
</rdf:RDF>
</metadata>
  <g
     transform="translate(0.000000,268.000000) scale(0.100000,-0.100000)"
     fill="#FFF200"
     stroke="none"
     id="g6">
    <path
       d="M0 2160 l0 -520 865 0 865 0 0 520 0 520 -865 0 -865 0 0 -520z"
       fill="#ED1C24"
       id="path8" />
    <path
       d="M2350 2160 l0 -520 870 0 870 0 0 520 0 520 -870 0 -870 0 0 -520z"
       id="path10" />
    <path
       d="M0 590 l0 -590 865 0 865 0 0 590 0 590 -865 0 -865 0 0 -590z"
       id="path12" />
    <path
       d="M2350 590 l0 -590 870 0 870 0 0 590 0 590 -870 0 -870 0 0 -590z"
       fill="#ED1C24"
       id="path14" />
  </g>
  <rect
     style="fill:#ffffff;fill-opacity:1;stroke:none"
     id="rect2995"
     width="409"
     height="46.400002"
     x="-4.2049697e-015"
     y="103.6" />
  <rect
     style="fill:#ffffff;fill-opacity:1;stroke:none"
     id="rect2995-1"
     width="62"
     height="268"
     x="173"
     y="-5.7220459e-006" />
</svg>
