<?xml version="1.0" standalone="no"?>
<!DOCTYPE svg PUBLIC "-//W3C//DTD SVG 20010904//EN"
 "http://www.w3.org/TR/2001/REC-SVG-20010904/DTD/svg10.dtd">
<svg version="1.0" xmlns="http://www.w3.org/2000/svg"
 width="1170.000000pt" height="1000.000000pt" viewBox="0 0 1170.000000 1000.000000"
 preserveAspectRatio="xMidYMid meet">
<metadata>
Created by potrace 1.12, written by Peter Selinger 2001-2015
</metadata>
<g transform="translate(0.000000,1000.000000) scale(0.100000,-0.100000)"
fill="#000000" stroke="none">
<path d="M0 5000 l0 -5000 260 0 260 0 0 945 0 945 689 0 689 0 7 -102 c4 -57
5 -294 2 -528 -3 -360 -7 -451 -26 -595 -26 -200 -96 -567 -117 -607 -19 -36
-18 -45 6 -51 32 -8 147 125 265 308 66 101 181 322 227 435 105 259 192 614
229 940 11 96 22 182 25 191 3 13 23 18 82 24 461 41 874 105 1269 196 225 51
229 51 253 -6 55 -129 207 -650 245 -840 14 -71 32 -161 41 -200 32 -142 63
-396 73 -605 12 -221 17 -270 30 -270 38 0 164 310 225 555 73 294 91 812 40
1180 -33 242 -38 272 -60 381 -8 40 1 45 121 84 217 71 725 305 1079 497 131
72 136 72 171 11 11 -19 39 -59 62 -89 60 -79 349 -563 422 -709 34 -69 66
-132 70 -140 17 -30 71 -157 71 -167 0 -6 7 -16 15 -23 8 -7 15 -23 15 -35 0
-12 6 -28 14 -34 8 -7 18 -26 21 -42 4 -16 11 -31 16 -34 5 -4 9 -14 9 -24 0
-10 7 -32 15 -47 8 -16 15 -37 15 -46 0 -9 4 -19 9 -22 5 -3 11 -18 14 -33 3
-16 23 -89 44 -163 33 -112 43 -135 59 -135 24 0 38 53 59 231 45 394 -5 801
-154 1251 -45 137 -49 147 -130 332 -42 95 -81 186 -86 201 -6 16 -18 37 -27
47 -10 10 -19 34 -20 53 -3 32 1 36 149 144 309 227 532 407 782 635 80 72
150 131 158 131 42 0 619 -555 827 -795 210 -244 301 -366 430 -577 81 -134
98 -154 117 -142 25 15 -20 345 -72 524 -36 126 -87 273 -105 309 -8 14 -14
31 -14 37 0 12 -64 159 -80 184 -6 8 -24 40 -40 70 -68 123 -97 171 -183 300
-109 165 -277 380 -382 490 -68 72 -70 64 63 223 225 267 522 680 707 984 42
69 54 82 76 83 39 0 323 -144 617 -314 30 -17 64 -37 76 -43 13 -7 73 -46 134
-85 60 -40 125 -82 143 -93 61 -37 128 -87 295 -221 119 -95 124 -100 267
-233 53 -50 104 -91 112 -91 36 0 7 101 -84 295 -83 176 -208 384 -275 458 -9
9 -16 21 -16 25 0 17 -181 211 -333 359 -143 138 -302 276 -377 328 -16 11
-79 55 -140 97 -60 42 -116 78 -123 81 -15 5 4 48 75 165 27 46 81 165 120
265 76 198 225 637 282 836 20 69 38 126 40 128 3 3 162 -29 231 -47 22 -6 51
-13 65 -16 14 -3 54 -14 90 -24 36 -10 126 -35 200 -55 361 -98 818 -287 1083
-447 170 -103 197 -88 101 54 -85 124 -158 212 -264 319 -271 272 -491 428
-885 627 -77 39 -169 82 -205 95 -116 44 -245 99 -257 111 -8 8 -8 27 2 76 23
108 73 471 100 724 14 132 28 242 31 245 6 7 762 19 1217 20 l347 1 0 250 0
250 -5850 0 -5850 0 0 -5000z m390 3870 l0 -630 -130 0 -130 0 0 630 0 630
130 0 130 0 0 -630z m9210 588 c0 -24 -9 -119 -20 -213 -163 -1438 -648 -2677
-1483 -3792 -239 -318 -417 -523 -697 -803 -751 -751 -1638 -1332 -2632 -1724
-545 -214 -1276 -393 -1923 -471 -165 -20 -642 -32 -1577 -40 l-738 -7 0 3546
0 3546 4535 0 4535 0 0 -42z m-9210 -2498 l0 -750 -130 0 -130 0 0 750 0 750
130 0 130 0 0 -750z m0 -2020 l0 -750 -130 0 -130 0 0 750 0 750 130 0 130 0
0 -750z m-99 -1290 l99 0 0 -620 0 -620 -130 0 -130 0 0 626 0 627 31 -7 c17
-3 76 -6 130 -6z"/>
<path d="M3185 9110 c-247 -35 -462 -116 -655 -244 -314 -210 -535 -535 -735
-1081 -130 -355 -260 -602 -374 -709 -87 -80 -175 -111 -434 -151 -87 -14
-167 -30 -177 -35 -47 -25 -12 -59 90 -87 52 -14 107 -17 270 -18 l205 0 75
40 c176 95 281 239 580 805 244 462 344 610 550 824 165 171 301 269 525 378
l109 53 137 0 136 0 96 -48 c223 -110 374 -264 482 -490 73 -151 79 -188 105
-662 11 -207 25 -288 63 -382 52 -128 163 -258 289 -340 l71 -46 206 6 c113 3
285 15 381 27 361 43 468 52 575 48 l110 -3 118 -58 c195 -96 279 -198 362
-441 42 -124 55 -199 62 -356 5 -116 2 -162 -11 -230 -32 -155 -123 -331 -257
-497 -35 -43 -252 -269 -484 -503 -447 -452 -489 -502 -571 -674 -105 -222
-120 -437 -48 -666 29 -92 82 -181 94 -159 10 18 30 296 30 417 0 80 2 88 45
171 131 254 265 398 755 811 113 95 248 217 301 270 189 193 348 471 393 693
19 89 22 362 6 501 -36 309 -330 788 -574 935 -110 66 -189 76 -311 40 -113
-33 -455 -40 -455 -9 0 11 128 180 308 407 71 90 191 249 268 354 239 329 281
369 385 369 55 0 78 -18 132 -102 40 -64 62 -79 93 -68 89 34 123 246 59 375
-31 65 -124 153 -197 189 -110 53 -163 61 -413 61 -146 0 -260 -5 -311 -13
-79 -14 -81 -13 -142 12 -179 76 -348 73 -511 -7 -90 -43 -217 -169 -261 -257
-33 -65 -33 -66 -38 -240 -5 -211 -5 -212 -144 -346 -106 -103 -172 -154 -200
-154 -15 0 -18 8 -18 58 0 31 5 91 11 132 5 41 10 123 10 182 0 89 -5 121 -26
185 -102 305 -401 619 -678 714 -52 18 -90 22 -232 25 -93 1 -197 -1 -230 -6z
m2287 -427 l115 -62 143 40 c125 34 157 39 249 39 162 0 289 -40 392 -121 41
-33 105 -117 95 -126 -3 -3 -24 11 -47 31 -88 75 -172 73 -353 -9 -67 -29
-172 -71 -234 -92 l-113 -38 -57 31 c-31 17 -95 52 -141 79 -142 82 -217 72
-286 -39 -26 -43 -30 -59 -30 -120 0 -56 6 -84 29 -133 43 -94 63 -108 149
-108 85 1 128 20 326 147 140 90 181 112 188 104 8 -8 -54 -87 -207 -266 -73
-85 -171 -204 -218 -265 -121 -156 -150 -185 -186 -185 -83 0 -316 200 -380
327 -24 47 -20 87 14 146 17 30 30 62 30 73 0 31 -45 95 -86 124 -39 26 -39
27 -39 91 0 158 161 346 331 388 22 6 75 9 120 7 77 -2 85 -5 196 -63z m-941
-1071 c15 -9 96 -79 180 -154 85 -76 187 -162 228 -190 41 -29 79 -61 85 -70
29 -47 -65 -90 -184 -85 -142 7 -265 97 -391 289 -95 143 -117 206 -81 228 24
15 129 4 163 -18z"/>
<path d="M3205 8614 c-88 -22 -214 -86 -297 -153 -88 -71 -305 -292 -371 -378
-70 -91 -132 -195 -246 -413 -209 -398 -310 -547 -506 -749 -254 -261 -359
-321 -658 -376 -78 -14 -146 -30 -151 -35 -14 -14 89 -58 176 -76 53 -12 106
-15 193 -11 106 4 132 9 225 42 360 127 501 271 800 815 282 513 393 675 583
856 301 286 582 286 742 0 81 -145 122 -327 150 -666 19 -232 31 -316 57 -393
47 -144 140 -292 252 -402 156 -154 257 -183 682 -200 l150 -6 115 55 114 56
181 0 180 0 80 -39 c146 -72 271 -196 295 -295 17 -71 5 -231 -26 -345 -78
-288 -195 -418 -780 -870 -264 -205 -385 -325 -447 -446 -108 -213 -150 -418
-133 -659 6 -90 9 -106 20 -95 8 8 67 118 133 244 138 267 183 344 260 440 88
111 279 295 507 490 270 230 452 412 532 531 68 103 136 266 152 364 19 112
14 326 -9 416 -71 280 -285 482 -545 513 -94 11 -199 -1 -433 -50 -168 -35
-221 -41 -363 -46 -133 -5 -181 -2 -240 11 -202 45 -313 151 -439 419 -78 167
-79 173 -95 490 -14 273 -16 291 -44 377 -144 428 -465 664 -796 584z"/>
<path d="M3250 8082 c-203 -68 -345 -189 -507 -432 -28 -41 -110 -180 -183
-309 -155 -277 -253 -424 -384 -579 -101 -120 -116 -141 -116 -166 0 -40 159
1 304 77 153 81 227 167 519 607 195 294 285 412 360 471 67 54 108 69 181 69
67 0 87 -10 194 -97 66 -54 112 -60 112 -14 0 16 -18 64 -40 108 -29 59 -58
97 -112 149 -129 125 -212 154 -328 116z"/>
<path d="M3475 7626 c-120 -38 -201 -119 -390 -390 -49 -70 -132 -177 -185
-238 -254 -291 -244 -272 -142 -266 130 7 264 90 512 318 216 198 232 209 366
225 90 11 111 17 126 35 64 79 -52 287 -177 319 -53 13 -59 13 -110 -3z"/>
<path d="M3700 6988 c-11 -13 -28 -47 -37 -77 -30 -104 14 -241 123 -380 174
-222 517 -394 680 -341 42 14 132 72 177 115 49 47 60 41 -249 114 -157 37
-217 60 -304 117 -81 53 -136 117 -217 254 -113 190 -132 220 -142 220 -6 0
-20 -10 -31 -22z"/>
<path d="M3466 6638 c-36 -51 -11 -206 53 -342 72 -152 174 -258 316 -327 177
-86 402 -90 446 -8 16 31 -13 66 -97 113 -245 138 -315 193 -451 356 -124 149
-206 230 -231 230 -11 0 -28 -10 -36 -22z"/>
<path d="M3200 6531 c-55 -18 -134 -65 -335 -201 -835 -564 -1084 -699 -1377
-745 -21 -3 -38 -10 -38 -14 0 -15 115 -60 199 -77 181 -36 487 24 752 148
264 124 652 374 803 517 84 80 109 134 114 246 3 65 0 95 -10 108 -15 20 -72
30 -108 18z"/>
<path d="M5042 6404 c-29 -20 -44 -58 -81 -198 -37 -142 -69 -212 -161 -357
-92 -143 -119 -207 -120 -280 0 -61 38 -206 71 -271 25 -49 38 -41 50 31 11
72 61 166 153 287 179 236 204 274 225 336 31 95 43 187 39 292 -3 89 -5 97
-32 125 -26 27 -78 51 -111 51 -6 0 -21 -7 -33 -16z"/>
<path d="M5306 6399 c107 -134 139 -210 139 -334 0 -71 -4 -88 -33 -146 -43
-86 -120 -183 -318 -399 -224 -246 -277 -309 -323 -388 -50 -86 -93 -212 -89
-260 3 -32 7 -37 31 -40 24 -3 49 17 190 156 89 88 221 209 292 268 272 227
374 354 464 580 64 159 87 313 60 395 -16 47 -84 115 -147 146 -43 21 -71 26
-165 31 -95 4 -110 3 -101 -9z"/>
<path d="M3347 6115 c-57 -20 -92 -45 -747 -535 -336 -252 -638 -486 -679
-526 -72 -70 -74 -74 -59 -96 28 -42 58 -50 155 -38 75 9 104 18 198 64 234
116 558 360 889 669 220 206 316 332 316 416 0 52 -20 64 -73 46z"/>
<path d="M3442 5914 c-183 -156 -1102 -1358 -1102 -1440 0 -26 59 -47 113 -40
198 27 355 177 791 760 281 375 366 511 366 585 0 64 -71 171 -114 171 -7 0
-31 -16 -54 -36z"/>
<path d="M4225 5758 c-2 -7 -6 -94 -9 -193 -4 -150 -9 -196 -30 -274 -14 -52
-23 -98 -20 -103 3 -4 16 -8 30 -8 35 0 92 64 144 159 63 118 75 108 40 -34
-31 -125 -29 -130 38 -96 47 24 97 76 115 120 30 71 -16 174 -137 309 -110
121 -159 156 -171 120z"/>
<path d="M3696 5705 c-111 -115 -317 -456 -496 -820 -175 -357 -295 -688 -288
-800 3 -50 3 -50 39 -53 82 -7 208 156 359 463 215 439 510 1137 510 1208 0
27 -28 57 -54 57 -10 0 -41 -25 -70 -55z"/>
<path d="M3901 5638 c-73 -78 -214 -465 -310 -847 -66 -262 -74 -335 -69 -641
3 -235 5 -259 24 -301 27 -57 90 -129 114 -129 30 0 40 42 125 526 68 385 108
592 185 954 74 344 83 401 70 434 -9 24 -15 26 -64 26 -44 0 -59 -5 -75 -22z"/>
</g>
</svg>
