<?xml version="1.0" encoding="UTF-8" standalone="no"?>
<svg
   xmlns:dc="http://purl.org/dc/elements/1.1/"
   xmlns:cc="http://creativecommons.org/ns#"
   xmlns:rdf="http://www.w3.org/1999/02/22-rdf-syntax-ns#"
   xmlns:svg="http://www.w3.org/2000/svg"
   xmlns="http://www.w3.org/2000/svg"
   xmlns:sodipodi="http://sodipodi.sourceforge.net/DTD/sodipodi-0.dtd"
   xmlns:inkscape="http://www.inkscape.org/namespaces/inkscape"
   version="1.0"
   width="600.000000pt"
   height="383.000000pt"
   viewBox="0 0 600.000000 383.000000"
   preserveAspectRatio="xMidYMid meet"
   id="svg2"
   inkscape:version="0.48.4 r9939"
   sodipodi:docname="V_ro_lipp.svg">
  <defs
     id="defs26" />
  <sodipodi:namedview
     pagecolor="#ffffff"
     bordercolor="#666666"
     borderopacity="1"
     objecttolerance="10"
     gridtolerance="10"
     guidetolerance="10"
     inkscape:pageopacity="0"
     inkscape:pageshadow="2"
     inkscape:window-width="1366"
     inkscape:window-height="718"
     id="namedview24"
     showgrid="false"
     inkscape:zoom="1.1518355"
     inkscape:cx="447.21125"
     inkscape:cy="242.06495"
     inkscape:window-x="-8"
     inkscape:window-y="-8"
     inkscape:window-maximized="1"
     inkscape:current-layer="svg2" />
  <metadata
     id="metadata4">
Created by potrace 1.11, written by Peter Selinger 2001-2013
<rdf:RDF>
  <cc:Work
     rdf:about="">
    <dc:format>image/svg+xml</dc:format>
    <dc:type
       rdf:resource="http://purl.org/dc/dcmitype/StillImage" />
  </cc:Work>
</rdf:RDF>
</metadata>
  <rect
     style="opacity:0.95999995;fill:#1e4c0c;fill-opacity:1;stroke:none"
     id="rect3003"
     width="600"
     height="383"
     x="3.8510861e-016"
     y="1.5258789e-005" />
  <g
     transform="translate(0.000000,383.000000) scale(0.100000,-0.100000)"
     fill="#000000"
     stroke="none"
     id="g6"
     style="fill:#ffffff">
    <path
       d="m 2540,2495 423,-415 c 10.7513,308.0642 7,542.9429 7,875 -143.3333,143.3333 -286.6667,286.6667 -430,430 0,-296.6667 0,-593.3333 0,-890 z"
       id="path8"
       style="fill:#ffffff"
       inkscape:connector-curvature="0"
       sodipodi:nodetypes="ccccc" />
    <path
       d="m 3080,2955 c 0,-293.3333 0,-586.6667 0,-880 143.3333,143.3333 286.6667,286.6667 430,430 -0.9304,291.6711 -2.9977,583.335 -5,875 -141.6667,-141.6667 -283.3333,-283.3333 -425,-425 z"
       id="path10"
       style="fill:#ffffff"
       inkscape:connector-curvature="0"
       sodipodi:nodetypes="ccccc" />
    <path
       d="m 2026,2000 c 292.3377,0.9381 584.6683,3.0023 877,5 -137.5927,142.3907 -276.3289,283.6621 -415,425 -293.3333,0 -586.6667,0 -880,0 137.8117,-148.6567 291.1621,-305.6249 418,-430 z"
       id="path12"
       style="fill:#ffffff"
       inkscape:connector-curvature="0"
       sodipodi:nodetypes="ccccc" />
    <path
       d="m 3150,2007 c 304.5084,-10.7507 536.8423,-7 865,-7 143.3333,143.3333 286.6667,286.6667 430,430 -293.3333,0 -586.6667,0 -880,0 z"
       id="path14"
       style="fill:#ffffff"
       inkscape:connector-curvature="0"
       sodipodi:nodetypes="ccccc" />
    <path
       d="m 1595,1460 c 293.3333,0 586.6667,0 880,0 143.3333,143.3333 286.6667,286.6667 430,430 -293.3333,0 -586.6667,0 -880,0 -143.3333,-143.3333 -286.6667,-286.6667 -430,-430 z"
       id="path16"
       style="fill:#ffffff"
       inkscape:connector-curvature="0"
       sodipodi:nodetypes="ccccc" />
    <path
       d="m 3566,1460 c 293.0044,0.9305 586.0017,2.9977 879,5 -138.9295,142.3943 -278.9971,283.6638 -419,425 -292.6667,0 -585.3333,0 -878,0 140.2305,-142.077 288.7865,-306.7848 418,-430 z"
       id="path18"
       style="fill:#ffffff"
       inkscape:connector-curvature="0"
       sodipodi:nodetypes="ccccc" />
    <path
       d="m 3080,935 423,-415 c 10.7513,308.0642 7,542.9429 7,875 -143.3333,143.3333 -286.6667,286.6667 -430,430 0,-296.6667 0,-593.3333 0,-890 z"
       id="path20"
       style="fill:#ffffff"
       inkscape:connector-curvature="0"
       sodipodi:nodetypes="ccccc" />
    <path
       d="m 2540,1395 0,-875 c 143.3333,143.33333 286.6667,281.66667 430,425 l -8,865 c -153.2421,-142.0557 -263.4745,-256.4745 -422,-415 z"
       id="path22"
       style="fill:#ffffff"
       inkscape:connector-curvature="0"
       sodipodi:nodetypes="ccccc" />
  </g>
</svg>
