<?xml version="1.0" encoding="UTF-8" standalone="no"?>
<svg
   xmlns:dc="http://purl.org/dc/elements/1.1/"
   xmlns:cc="http://creativecommons.org/ns#"
   xmlns:rdf="http://www.w3.org/1999/02/22-rdf-syntax-ns#"
   xmlns:svg="http://www.w3.org/2000/svg"
   xmlns="http://www.w3.org/2000/svg"
   version="1.1"
   id="svg4265"
   viewBox="0 0 799.99997 532.51533"
   height="150.28766mm"
   width="225.77777mm">
  <defs
     id="defs4267" />
  <metadata
     id="metadata4270">
    <rdf:RDF>
      <cc:Work
         rdf:about="">
        <dc:format>image/svg+xml</dc:format>
        <dc:type
           rdf:resource="http://purl.org/dc/dcmitype/StillImage" />
        <dc:title></dc:title>
      </cc:Work>
    </rdf:RDF>
  </metadata>
  <g
     transform="translate(1344.8435,17.438872)"
     id="layer1">
    <rect
       y="-17.438871"
       x="-1344.8435"
       height="532.51532"
       width="800"
       id="rect4813"
       style="opacity:1;fill:#18448d;fill-opacity:1;stroke:none;stroke-width:3;stroke-miterlimit:4;stroke-dasharray:none;stroke-opacity:0.74883722" />
    <g
       transform="matrix(2.4539877,0,0,2.4539877,814.62263,-748.91488)"
       id="g5301">
      <path
         style="fill:#08188d;fill-opacity:1;stroke:#000000;stroke-width:0.32294112px;stroke-linecap:butt;stroke-linejoin:miter;stroke-opacity:0"
         d="m -739.95993,326.48388 c -1.84121,0.11448 -3.68248,0.24954 -5.52369,-0.1145 -1.16689,-0.52152 -1.87715,-1.04307 -2.27444,-1.56462 l -0.54152,0.41978 c 0.58671,0.4616 1.0861,0.94034 2.13001,1.48832 l -0.0361,1.29746 c 0.38272,1.35276 1.77818,1.02446 2.09393,-0.0381 l 0,-0.83953 c 1.35986,0.18584 2.79193,-0.11936 4.15179,-0.1145 l 0,-0.53426 z"
         id="path5037-8" />
      <path
         style="fill:#08188d;fill-opacity:1;stroke:#000000;stroke-width:0.32294112px;stroke-linecap:butt;stroke-linejoin:miter;stroke-opacity:0"
         d="m -733.06432,326.36938 c 1.04506,0.33481 2.08855,0.67281 3.32141,0.6106 1.66077,-0.99662 3.32147,-1.3664 4.98216,-1.45013 l 0.0361,0.91585 c -0.68588,-0.0637 -1.55288,-0.13394 -2.52716,0.76326 0.28988,2.65007 -2.40444,1.79496 -2.16615,0.57241 -1.25157,0.0386 -2.50313,0.0638 -3.75463,-0.68691 l 0.10829,-0.72508 z"
         id="path5039-1" />
      <path
         style="fill:#08188d;fill-opacity:1;stroke:#000000;stroke-width:0.32294112px;stroke-linecap:butt;stroke-linejoin:miter;stroke-opacity:0"
         d="m -738.0465,333.50558 c 0.64498,1.56979 1.82569,1.86387 2.56331,0.0763 l 1.44411,0 c -0.28049,0.82075 -0.36169,1.70629 -1.84127,2.13702 l -1.69685,-0.0381 c -1.52974,-0.61435 -1.69262,-1.92093 -1.80507,-2.21335 l 1.33577,0.0381 z"
         id="path5041-8" />
      <path
         style="fill:#08188d;fill-opacity:1;stroke:#000000;stroke-width:0.32294112px;stroke-linecap:butt;stroke-linejoin:miter;stroke-opacity:0"
         d="m -746.87248,332.03886 c 2.73844,4.2242 5.60993,8.01007 10.61975,4.74922 l 0.76586,-0.054 c 5.136,3.91099 7.92249,-0.87972 10.36457,-3.8857 l 0.71482,0.32381 c -2.84782,3.04631 -4.66249,8.27677 -10.56877,4.85715 -0.5454,-0.42793 -1.20958,-0.22744 -1.88913,0.054 -6.65745,2.78647 -8.97953,-2.97856 -10.21136,-5.50477 l 0.20426,-0.53968 z"
         id="path5043-2" />
      <path
         style="fill:#08188d;fill-opacity:1;stroke:#000000;stroke-width:0.32294112px;stroke-linecap:butt;stroke-linejoin:miter;stroke-opacity:0"
         d="m -742.12424,338.29918 2.09339,3.93969 2.80807,-4.31745 -0.86796,0.10794 -1.88913,3.13015 -1.58277,-2.80634 -0.5616,-0.054 z"
         id="path5045-6" />
      <path
         style="fill:#08188d;fill-opacity:1;stroke:#000000;stroke-width:0.32294112px;stroke-linecap:butt;stroke-linejoin:miter;stroke-opacity:0"
         d="m -732.93398,338.67697 c 0.64566,1.27438 0.9674,2.4509 2.50177,3.99364 0.81957,-1.49309 1.17126,-2.98621 1.17425,-4.47936 l -0.51055,0.32381 c -0.16165,0.83651 -0.0742,1.89283 -0.86796,3.13017 l -1.53165,-2.86032 -0.76586,-0.10794 z"
         id="path5047-6" />
      <path
         style="fill:#08188d;fill-opacity:1;stroke:#000000;stroke-width:0.32294112px;stroke-linecap:butt;stroke-linejoin:miter;stroke-opacity:0"
         d="m -742.02214,338.48806 2.75709,5.8286 0.89347,0.67462 6.10129,0.16189 0.63825,-0.62064 1.14878,-1.8889 -0.40845,-0.53968 -0.74033,1.13335 -2.37416,-1.94285 -0.0511,0.64759 1.50613,1.83494 0,0.62064 -5.99913,0.027 0,-0.70158 1.63382,-1.64602 2.93575,-0.10796 0,-0.70157 -3.03784,0.054 -0.66377,0.35081 -1.42955,1.75396 -2.9103,-4.93809 z"
         id="path5049-0" />
      <path
         style="fill:#08188d;fill-opacity:1;stroke:#000000;stroke-width:0.32294112px;stroke-linecap:butt;stroke-linejoin:miter;stroke-opacity:0"
         d="m -753.85941,347.7398 c 0.52266,-1.95643 0.7376,-4.14047 3.10481,-4.73203 3.45618,-2.45481 1.76335,-5.40443 1.22748,-8.24286 l -0.64981,0 c 0.65723,2.86233 1.93255,5.97871 -0.7221,7.47963 -2.03308,0.67041 -3.26185,2.50981 -3.75463,5.41893 l 0.79425,0.0763 z"
         id="path5051-3" />
      <path
         style="fill:#08188d;fill-opacity:1;stroke:#000000;stroke-width:0.32294112px;stroke-linecap:butt;stroke-linejoin:miter;stroke-opacity:0"
         d="m -754.7352,342.88651 c 1.74401,-1.01024 2.30452,-2.39578 2.70597,-3.83177 l -0.76587,-0.21585 c 0,1.38566 -0.94337,2.57092 -2.29751,3.66983 l 0.35741,0.37779 z"
         id="path5053-8" />
      <path
         style="fill:#f8db01;fill-opacity:1;stroke:#000000;stroke-width:0.3137148px;stroke-linecap:butt;stroke-linejoin:miter;stroke-opacity:0"
         d="m -755.87937,315.44885 c -0.92206,2.9258 -1.84332,5.85135 1.40036,7.69456 -1.42541,0.72783 -2.37497,2.11522 -3.00082,3.95125 -2.81086,2.6116 -3.58229,2.1091 -4.90145,2.70348 2.70079,1.85701 5.40159,0.21743 8.10238,-1.14377 l 0.10005,0.51989 c -2.78458,1.21628 -5.52492,2.46021 -5.70168,5.30299 -1.53377,2.5727 -3.06759,2.16965 -4.60135,3.01542 2.80084,1.14999 5.60169,0.71743 8.40247,-0.62388 l -0.20011,0.72788 -4.70134,1.35174 c -2.59114,-0.006 -3.5013,1.54019 -3.70106,3.74329 -2.1006,3.66017 -4.20122,3.67845 -6.30182,5.09505 4.91827,1.81893 9.55392,0.92383 14.40413,-2.59952 l 0.60019,0.10397 c -4.03785,4.06891 -8.77166,3.79704 -13.3038,4.78311 -3.13532,1.10805 -4.92492,3.61491 -6.20181,6.65473 -4.0141,4.30719 -7.62736,4.03154 -11.40324,5.61493 4.40125,1.66756 8.80256,1.58903 13.20381,0.20795 -1.07841,1.52506 -1.6539,3.05011 -1.40043,4.57513 2.96748,-2.47375 5.93508,-2.32281 8.90255,-3.01542 l 6.20175,0.20798 c 3.32114,-0.3142 5.67936,-1.07323 6.60191,-2.49554 l 0,0.62388 c -3.06576,4.06218 3.3212,1.8256 5.00144,1.97562 -2.1603,-0.82427 -4.30862,-1.64973 -1.00028,-3.01542 4.63553,-1.05157 7.39588,-3.87525 9.10259,-7.69453 l 0.40015,0.20795 c -0.27164,1.55626 -2.90484,2.73484 -0.10005,4.7831 l 5.50157,0 c 0.967,0.14841 1.93392,0.75639 2.90084,2.28756 0.009,-1.55324 -1.30861,-2.76201 -2.30064,-4.05524 l 0,-1.97563 0.3001,0 0,1.76768 6.00171,3.84728 c 0.61244,-1.20885 0.97038,-2.50589 0,-4.26319 l 6.0017,-0.31194 c 3.03119,-0.82398 3.11736,-2.41327 4.20122,-3.74331 l -5.60164,0 0.10006,-1.55969 c 3.28451,-0.48921 5.47455,-1.95551 7.70216,-4.36719 -2.10373,0.051 -3.9595,-1.18685 -5.80166,-2.49551 l 0.60018,-0.51991 2.30064,1.24777 -0.20004,-5.19902 c 1.04487,0.31139 2.00634,1.14278 3.30099,-0.10398 -3.42132,-2.69015 -2.53703,-5.06058 -2.40069,-7.48658 l -2.7008,-1.76766 0.30009,-0.41594 4.50131,2.70351 c 0.33229,-5.42706 -1.30759,-7.31293 -3.90111,-7.48659 1.71127,-2.10306 2.85659,-4.7944 3.50102,-8.0065 -3.60108,-0.69444 -7.20209,-0.34566 -10.8031,3.63934 l -0.40016,-0.41594 2.00055,-2.39154 c -7.8355,-0.94296 -15.67114,-2.41253 -23.50671,0.10397 l 0,1.76768 -0.60013,-0.104 c -0.81547,-1.70305 -2.88898,-3.07917 -6.902,-3.95125 z"
         id="path5035-3" />
      <path
         style="fill:#17438e;fill-opacity:1;stroke:#000000;stroke-width:0.3137148px;stroke-linecap:butt;stroke-linejoin:miter;stroke-opacity:0"
         d="m -742.25594,324.75871 c -1.80364,0.11029 -3.60734,0.2404 -5.41098,-0.11026 -1.14308,-0.50243 -1.83876,-1.00485 -2.22802,-1.50727 l -0.5305,0.40437 c 0.57481,0.44468 1.06399,0.90585 2.08659,1.43374 l -0.0354,1.24995 c 0.3749,1.30313 1.7419,0.98688 2.05119,-0.0368 l 0,-0.80879 c 1.33208,0.17903 2.73489,-0.11497 4.06705,-0.11029 l 0,-0.51469 z"
         id="path5037-9" />
      <path
         style="fill:#17438e;fill-opacity:1;stroke:#000000;stroke-width:0.3137148px;stroke-linecap:butt;stroke-linejoin:miter;stroke-opacity:0"
         d="m -735.50116,324.64845 c 1.02368,0.32249 2.04595,0.64811 3.25361,0.58818 1.6268,-0.96008 3.25361,-1.31631 4.88042,-1.39698 l 0.0354,0.8823 c -0.67193,-0.0614 -1.52117,-0.12905 -2.47556,0.73526 0.28396,2.55294 -2.35545,1.72918 -2.12198,0.55145 -1.22598,0.0372 -2.45195,0.0615 -3.67799,-0.66174 l 0.10611,-0.69847 z"
         id="path5039-8" />
      <path
         style="fill:#17438e;fill-opacity:1;stroke:#000000;stroke-width:0.3137148px;stroke-linecap:butt;stroke-linejoin:miter;stroke-opacity:0"
         d="m -740.38158,331.52304 c 0.6317,1.51225 1.78846,1.79557 2.51089,0.0735 l 1.41465,0 c -0.27471,0.79066 -0.35434,1.64374 -1.80364,2.05871 l -1.6622,-0.0368 c -1.49857,-0.59185 -1.65812,-1.85052 -1.76824,-2.13224 l 1.30854,0.0368 z"
         id="path5041-80" />
      <path
         style="fill:#17438e;fill-opacity:1;stroke:#000000;stroke-width:0.3137148px;stroke-linecap:butt;stroke-linejoin:miter;stroke-opacity:0"
         d="m -749.0274,330.11008 c 2.68256,4.06937 5.49545,7.71646 10.40297,4.57514 l 0.7502,-0.052 c 5.03112,3.76763 7.76077,-0.84749 10.15296,-3.74328 l 0.70018,0.31194 c -2.78962,2.93466 -4.56725,7.97338 -10.353,4.67911 -0.53417,-0.41225 -1.18487,-0.21909 -1.85046,0.052 -6.52153,2.68431 -8.79624,-2.86936 -10.00295,-5.30302 l 0.2001,-0.51988 z"
         id="path5043-8" />
      <path
         style="fill:#17438e;fill-opacity:1;stroke:#000000;stroke-width:0.3137148px;stroke-linecap:butt;stroke-linejoin:miter;stroke-opacity:0"
         d="m -744.37608,336.14093 2.05058,3.79528 2.75082,-4.15919 -0.85026,0.10397 -1.85053,3.01542 -1.55044,-2.70348 -0.55017,-0.052 z"
         id="path5045-7" />
      <path
         style="fill:#17438e;fill-opacity:1;stroke:#000000;stroke-width:0.3137148px;stroke-linecap:butt;stroke-linejoin:miter;stroke-opacity:0"
         d="m -735.37354,336.50487 c 0.63252,1.22766 0.94772,2.36107 2.45072,3.84728 0.80289,-1.4384 1.14737,-2.87679 1.15036,-4.31519 l -0.50014,0.31194 c -0.15839,0.80584 -0.0728,1.82345 -0.85026,3.01543 l -1.50041,-2.75548 -0.75027,-0.10398 z"
         id="path5047-7" />
      <path
         style="fill:#17438e;fill-opacity:1;stroke:#000000;stroke-width:0.3137148px;stroke-linecap:butt;stroke-linejoin:miter;stroke-opacity:0"
         d="m -744.27602,336.32292 2.70079,5.61493 0.87524,0.64987 5.97667,0.15597 0.62516,-0.59789 1.12538,-1.81966 -0.40014,-0.51989 -0.72524,1.09178 -2.32562,-1.87163 -0.0497,0.62388 1.47544,1.76766 0,0.5979 -5.87668,0.026 0,-0.67586 1.6004,-1.5857 2.87585,-0.104 0,-0.67586 -2.97584,0.052 -0.65022,0.33796 -1.40036,1.68967 -2.8508,-4.75709 z"
         id="path5049-8" />
      <path
         style="fill:#17438e;fill-opacity:1;stroke:#000000;stroke-width:0.3137148px;stroke-linecap:butt;stroke-linejoin:miter;stroke-opacity:0"
         d="m -755.87167,345.23549 c 0.51198,-1.88468 0.72257,-3.98868 3.04145,-4.55856 3.38559,-2.36484 1.72734,-5.20633 1.20243,-7.94073 l -0.63661,0 c 0.64382,2.75741 1.89315,5.75956 -0.70732,7.20546 -1.99157,0.64584 -3.19529,2.41783 -3.678,5.2203 l 0.77805,0.0735 z"
         id="path5051-38" />
      <path
         style="fill:#18448d;fill-opacity:1;stroke:#000000;stroke-width:0.3137148px;stroke-linecap:butt;stroke-linejoin:miter;stroke-opacity:0"
         d="m -756.72963,340.5601 c 1.70842,-0.97321 2.25749,-2.30796 2.65077,-3.69131 l -0.7502,-0.20795 c 0,1.33488 -0.92418,2.47669 -2.25062,3.53532 l 0.35005,0.36394 z"
         id="path5053-3" />
      <path
         style="fill:#15448e;fill-opacity:1;stroke:#000000;stroke-width:0.3137148px;stroke-linecap:butt;stroke-linejoin:miter;stroke-opacity:0"
         d="m -773.53445,362.49995 c 2.71339,-1.15215 5.44121,-2.85217 7.25206,-5.30299 2.87095,-5.98586 6.50804,-6.96601 10.30297,-6.91471 l -0.1,0.88383 c -2.64648,0.14535 -6.02418,-0.49741 -9.85286,6.70674 -3.1861,3.66234 -6.91303,4.9959 -8.40242,5.8229 l 0.80024,-1.19577 z"
         id="path5055-7" />
      <path
         style="fill:#18448d;fill-opacity:1;stroke:#000000;stroke-width:0.3137148px;stroke-linecap:butt;stroke-linejoin:miter;stroke-opacity:0"
         d="m -727.67131,356.15716 c -0.79609,-0.67588 -0.76294,-1.35174 -0.50013,-2.02763 1.01612,-0.86651 1.02953,-1.73299 1.00027,-2.5995 l 0.45017,0 c -0.19058,0.85655 0.46189,1.44791 -0.90028,2.80747 0.032,0.6932 -0.0497,1.17843 0.7502,1.87163 l -0.80023,-0.052 z"
         id="path5057-10" />
      <path
         style="fill:#16458e;fill-opacity:1;stroke:#000000;stroke-width:0.3137148px;stroke-linecap:butt;stroke-linejoin:miter;stroke-opacity:0"
         d="m -722.91995,352.25788 c -2.56949,-1.62501 -4.13497,-3.45009 -4.6513,-4.93905 l 1.0503,-0.15597 c 0.73414,1.14377 1.05731,2.49551 3.55098,3.63931 l 0.0497,1.45571 z"
         id="path5059-7" />
      <path
         style="fill:#18448d;fill-opacity:1;stroke:#000000;stroke-width:0.3137148px;stroke-linecap:butt;stroke-linejoin:miter;stroke-opacity:0"
         d="m -720.91932,343.83549 c -1.14879,-1.49101 -2.96244,-3.43344 -4.60136,-2.49554 l 0.20004,-0.67586 c 1.88491,-0.84094 3.4723,1.10077 5.10149,2.65149 l -0.70017,0.51991 z"
         id="path5061-3" />
      <path
         style="fill:#144689;fill-opacity:1;stroke:#000000;stroke-width:0.3137148px;stroke-linecap:butt;stroke-linejoin:miter;stroke-opacity:0"
         d="m -718.16857,339.31233 c -2.84829,-1.03331 -5.51308,-2.22559 -6.00171,-5.30299 l -0.70025,0 c 0.0744,3.32709 3.31385,4.81164 6.65193,6.23882 l 0.0497,-0.93583 z"
         id="path5063-4" />
      <path
         style="fill:#f8db01;fill-opacity:1;stroke:#000000;stroke-width:0.3137148px;stroke-linecap:butt;stroke-linejoin:miter;stroke-opacity:0"
         d="m -766.18234,343.73149 c -2.1006,2.2543 -4.2012,2.90432 -6.30181,4.15922 1.1362,0.49326 2.13832,1.02133 4.30127,1.24778 -2.6032,0.79464 -4.66562,2.15143 -6.20183,4.05522 l -6.50184,0 3.10087,-3.53534 c -1.10509,-1.44496 -2.79676,-2.2621 -3.31541,-1.19676 -0.96209,1.97642 -2.12429,0.99731 -3.18644,1.19676 1.31201,-3.00279 1.568,-5.05425 -1.10032,-4.47114 -0.71829,1.58833 -1.72564,1.97513 -2.70073,2.49551 1.10815,-1.9104 0.50619,-2.93193 -0.50021,-3.74328 -2.10986,-3.1109 1.37354,-5.39116 2.60081,-8.00647 -2.92153,1.08389 -7.42691,5.31119 -7.70223,1.14377 2.96366,-0.22415 3.34019,-5.35975 0.30009,-5.19902 0.48367,-5.45203 3.63492,-3.59363 7.00199,-1.14377 l -1.30037,-1.97563 1.50048,-1.0398 1.40036,-0.10399 c -0.13933,-1.56078 -1.33774,-2.17788 -3.34353,-2.07569 -2.26566,0.0161 -4.22292,-0.22437 -3.8585,-2.39545 1.47768,-0.0565 5.64785,0.24704 4.40118,-3.53534 3.57467,-3.34178 3.82665,0.22415 4.90145,2.0796 l 1.40036,-0.62389 c -1.63137,-2.93755 1.78131,-6.04377 2.40069,-1.97562 3.46237,1.55542 3.75668,0.54944 5.00144,0.31194 0.60019,-1.08969 1.20038,-1.09006 1.80051,-0.51988 l 1.10032,0.20794 -2.90083,1.76768 -0.1,1.66368 0.80016,-0.10397 0,-1.03982 2.90084,-2.49551 c 0.92567,-0.46187 1.74163,-0.12597 2.4007,1.35174 -2.12654,1.96603 -2.18419,5.42443 2.6008,4.47113 -2.46032,3.46352 -4.97727,5.27976 -7.70223,1.03983 -1.50667,-0.14619 -5.13239,-0.0716 -2.50075,3.32736 2.41601,1.76863 1.46577,5.87005 1.70052,9.15028 2.961,4.72162 5.11722,4.00582 7.60218,5.51093 z"
         id="path5131-96" />
      <path
         style="fill:#f8db01;fill-opacity:1;stroke:#000000;stroke-width:0.3137148px;stroke-linecap:butt;stroke-linejoin:miter;stroke-opacity:0"
         d="m -792.9347,332.29504 c -1.65614,0.77029 -3.12517,0.18421 -4.59754,-0.95582 -0.81323,1.23402 -0.36306,5.54582 3.53656,5.14678 2.57038,0.006 2.71549,-3.06252 1.06098,-4.19096 z"
         id="path5133-5" />
      <path
         style="fill:#f8db01;fill-opacity:1;stroke:#000000;stroke-width:0.3137148px;stroke-linecap:butt;stroke-linejoin:miter;stroke-opacity:0"
         d="m -788.47866,320.08988 c -3.00926,-0.8269 -5.2417,0.19195 -6.93161,2.49985 1.83992,-0.44611 3.58271,-0.38715 5.23409,0.14705 2.16907,-0.88232 2.73489,-1.7646 1.69752,-2.6469 z"
         id="path5135-1" />
      <path
         style="fill:#f8db01;fill-opacity:1;stroke:#000000;stroke-width:0.3137148px;stroke-linecap:butt;stroke-linejoin:miter;stroke-opacity:0"
         d="m -777.79827,318.3988 c 0.48537,-0.95584 -0.15703,-1.91166 -1.55608,-2.86748 2.54553,-0.0313 5.12054,-0.11378 6.01212,2.72043 -1.48537,0.34345 -2.97074,0.92408 -4.45604,0.14705 z"
         id="path5137-0" />
      <path
         style="fill:#f8db01;fill-opacity:1;stroke:#000000;stroke-width:0.3137148px;stroke-linecap:butt;stroke-linejoin:miter;stroke-opacity:0"
         d="m -767.82521,320.60454 c -2.20984,2.84437 -0.1918,4.39737 1.90975,3.60275 2.63715,-2.4039 1.59741,-5.52766 -0.49516,-6.69081 0.1886,2.00969 -0.28288,3.03904 -1.41459,3.08806 z"
         id="path5139-9" />
      <path
         style="fill:#f8db01;fill-opacity:1;stroke:#000000;stroke-width:0.3137148px;stroke-linecap:butt;stroke-linejoin:miter;stroke-opacity:0"
         d="m -714.56756,346.85091 c -2.15736,1.83621 -4.20372,3.7417 -8.30235,4.36717 l 0.1,0.51991 6.3018,-0.104 c -1.85434,5.53681 -6.34155,4.99167 -10.50295,5.19903 0.36714,1.25914 0.42643,2.66052 -0.40014,4.47116 l -4.30126,-2.91145 0.70024,3.53534 -4.8014,-2.59952 -4.40124,0 -1.32171,-1.09547 -7.88094,3.79895 0,1.35174 1.50042,0.41592 0,0.93582 -5.50158,0.93584 -1.7054,-1.93106 -4.99656,1.41114 c -0.3131,2.69231 -1.05377,5.19749 -4.90138,6.34282 -4.4282,1.42479 -7.80005,4.13071 -11.11873,6.9011 l -4.88041,0.44113 0.0707,-1.83813 c 7.39199,-1.63168 1.1172,-4.38464 -1.20243,-3.16156 -0.76661,2.53785 -1.70501,4.75974 -4.88042,2.86748 l -2.05125,0 0,0.80876 2.12197,0.36763 0.0707,2.6469 3.11218,0 -0.14144,0.73527 -3.25368,0 -0.77805,-0.88232 0,-1.98516 c -3.11067,-1.06663 -5.68868,-1.28128 -6.36578,1.544 5.35203,-0.58117 4.84706,1.79771 2.61707,4.85267 0.19051,1.53549 1.34475,1.81859 3.04146,1.39698 l 0.91948,-1.02935 2.82923,0 -0.21222,0.58822 -2.33414,0.22054 -0.9902,0.8088 c -0.51674,3.81664 1.37715,2.37095 2.61708,2.3528 1.99898,-2.57214 4.10748,-1.95861 6.295,0.95584 5.72061,-0.10678 5.01014,-2.06263 1.90975,-4.70562 l 2.68779,1.47051 0.0707,-2.05872 -0.91948,-1.98516 0.4951,0 0.84876,1.39697 1.55609,-1.10289 c 1.8229,0.13417 3.80575,0.51781 4.17317,-1.61755 l 0.4951,-0.0735 c -0.77125,5.23591 2.52259,4.51751 5.7999,3.8233 0.66668,-1.85813 1.85951,-3.35165 6.43657,-2.49985 2.77485,-1.163 3.29037,-2.39124 -0.70732,-3.7498 0.80302,-1.85669 2.12299,-1.56414 3.67799,-0.29411 1.18317,-4.31511 2.88124,-1.96685 3.39512,-0.95581 0.2581,-1.36636 1.08829,-2.64824 2.74462,-2.59347 1.28581,0.0425 1.46523,-1.9589 0.36749,-3.50913 l 1.27314,0.95583 1.62687,-1.76459 0.42438,0.3676 c -1.42866,1.10291 -1.95773,2.20577 -0.56588,3.30864 0.74565,-2.48032 3.61381,-3.03003 5.72925,-4.26445 2.16084,-0.88229 1.58923,-1.76461 2.05118,-2.64691 0.41827,1.19573 0.52336,2.48447 2.19264,3.30862 3.64464,-6.22648 8.95923,-6.66628 13.43889,-9.99942 0.55929,-1.63952 -0.36101,-2.71245 -2.33412,-3.38214 l 0,-0.51468 0.77803,0 c 2.26566,0.81062 2.58454,2.26029 2.33413,3.89682 -2.83426,1.96733 -6.42534,3.46266 -8.41697,5.95554 l 4.24381,0 5.37559,-4.4115 0.70732,0.14705 -2.54635,2.86748 c 6.801,1.3886 7.81726,-2.47649 11.03405,-4.48504 l 0.70732,0.0735 -1.62686,2.35283 c 2.97073,-0.21781 5.9414,-0.92129 8.91213,-3.08807 6.88445,-1.29347 13.76896,-0.70506 20.6534,-0.95583 3.69991,2.21928 3.90015,5.77887 4.10244,9.33769 0.84005,1.3 2.03757,2.15412 3.81943,2.27929 -1.25579,1.13405 0.77436,1.98346 1.55609,2.94099 0.86666,0.98035 0.97195,1.96068 0.14144,2.94103 2.70889,-0.21654 3.63096,-1.94223 3.32433,-4.70562 0.46338,1.36713 0.54261,2.86736 2.61707,3.67625 0.92269,1.31694 2.33849,2.61155 -0.91947,4.1174 3.60673,0.25448 7.55289,0.87491 6.22434,-4.19093 2.84095,3.28528 5.97428,1.09968 8.9828,1.24993 l 0.14144,2.64692 c -0.3651,0.92359 -0.60999,1.88131 1.06099,3.38214 0.16995,1.88907 -0.60735,2.62924 -1.55609,3.16159 l -4.45605,0.14706 0,-1.39699 c 3.66432,-1.46453 1.34094,-3.21618 0.91949,-2.941 l -1.48537,-0.0735 c -0.20991,4.18964 -3.09632,2.056 -5.23408,1.69109 -2.46393,-0.45662 -3.4103,1.34696 -0.14144,2.13224 l 0.14144,0.73523 c -0.86306,-0.52627 -1.72584,-1.0493 -2.40478,0.14706 -0.44187,-3.65709 -3.5693,-2.57609 -4.10244,-1.19743 1.35746,1.72902 1.67056,3.61464 -0.49511,4.48682 -0.27069,1.08576 -0.30207,1.81469 0.91948,1.9309 l 1.90975,-1.1764 2.05119,-0.36762 -0.14144,0.44114 -2.1219,0.51468 -1.41465,1.17641 c 0.23666,0.75097 0.89667,1.20855 2.26334,1.1764 1.96597,-2.58542 3.38226,-1.457 4.59755,1.02935 4.15934,1.10439 3.81351,-1.30359 2.75851,-4.26447 0.76886,0.53321 1.36755,1.13715 1.20242,2.05872 l 0.42438,0 c 1.1311,-1.00127 0.59788,-1.75536 0.4951,-2.57339 l 1.27315,1.1764 2.54635,-1.1764 c 0.3357,1.7781 0.66656,3.56251 3.39505,2.27928 0.80814,-2.33314 2.30549,-3.15371 4.80971,-1.76461 2.92439,-0.0951 1.39831,-1.66207 0.32106,-3.08069 l -2.90083,0 0,-0.62387 2.70072,-0.10398 0.10005,-2.7035 4.90139,2.39156 c 1.10461,-2.40335 -0.79895,-4.30641 -4.40125,-5.92688 1.30037,-0.66313 2.60074,-0.39964 3.9011,0.10397 0.4297,-2.99229 -2.92764,-3.62259 -5.10141,-4.99104 l 2.30064,-0.72786 -1.80051,-1.55972 c 3.08536,1.18378 6.18793,2.41447 7.80222,-0.41591 l -3.63811,-0.7338 c -1.17771,-1.01936 -2.05323,-0.46747 -3.06378,-0.61796 l 0.1,-0.51989 2.90083,0 c 2.12769,-1.64082 0.50143,-2.54994 -0.20004,-3.63931 -0.0815,1.13837 -0.47863,2.04794 -1.25715,2.23066 -1.14096,0.26783 -2.65723,0.13485 -2.74401,1.30465 -1.07427,1.0007 -1.79629,0.53713 -2.50068,0 l -3.60109,-4.88705 c 0.70964,-0.65502 1.93957,-0.63386 3.40104,-0.31194 -0.30017,-0.76457 -0.77382,-1.96473 -1.60495,-1.78101 -3.90963,0.86426 -4.81597,-1.132 -6.29732,-2.48219 l 5.60156,0.31195 c -0.61843,-1.29209 -2.48292,-2.35258 -6.99525,-2.85118 -2.04057,-0.22548 -3.04513,-2.59136 -3.80786,-4.42744 1.03921,1.14699 1.48217,2.36283 4.10121,3.32736 l -1.5004,-2.80747 c 1.20004,0.76251 1.14143,1.52505 3.701,2.28757 l 0.10005,-1.87165 c 1.1769,0.71786 1.57325,1.61606 4.30119,1.97562 -1.14661,-0.79717 -1.15641,-1.59434 -1.00027,-2.39154 5.33713,-0.97889 10.70189,-5.59068 4.40131,-13.2055 -5.03914,-5.3487 -11.01444,-5.58828 -17.10491,-5.19902 l -1.50048,0.83186 -0.20004,-0.31195 c 3.6051,-1.95838 -0.84271,-4.62933 -1.60047,-4.57513 -4.2771,-0.74391 -8.5983,-0.72565 -12.6141,-0.0683 -5.59734,0.91623 -10.76982,2.03555 -15.99404,0.90015 l 0,0.62389 4.80133,2.18359 12.90372,-0.31194 -0.3001,0.72786 -13.20374,0.20797 -4.40125,-2.1836 c -11.21578,-0.44289 -14.49478,-6.06553 -3.40097,-8.83833 l 8.10225,-0.83183 0.80023,-0.72785 0.30009,0.41591 -1.00027,0.72786 c 0.48101,2.4775 3.89621,3.34027 8.90255,3.32736 11.30325,1.52337 29.75809,-6.72407 33.90974,1.97563 1.61626,-1.43416 4.99497,-4.661 -4.40131,-7.38259 l -7.00199,0 0,-0.62388 7.2021,0 c 4.12422,-0.50171 6.85953,-4.29654 2.80077,-7.07068 -5.45754,8.2824 -22.66992,6.66977 -31.40898,3.53534 -3.91622,-0.83624 -9.85388,-2.07209 -10.40296,1.76768 l 1.00027,1.55969 -0.60019,0.10399 -0.70018,-0.93582 c -8.12389,0.18275 -17.43979,1.90541 -19.40556,5.40696 -3.09135,3.33871 -0.16512,11.71133 15.60451,11.33387 4.76798,0.20638 9.53602,-0.31103 14.30407,-1.76768 l -0.10006,0.51991 c -5.55194,1.17701 -11.2006,1.95189 -16.50466,4.15919 -4.03893,0.72945 -7.6198,0.77879 -9.80283,-1.24774 0.14756,5.51723 7.90023,4.08958 10.9031,3.63931 4.94371,-0.74651 9.65711,-1.01418 13.80392,-0.104 7.62771,1.08677 15.26317,2.18417 18.20525,-3.22339 l -1.50048,-1.35174 0.50021,0 1.70045,1.03982 c 14.46409,-2.91604 25.1847,13.70779 3.50096,11.95773 -8.75403,-4.01265 -11.79903,-3.65244 -15.70442,-3.95126 -1.86898,-0.15505 -3.32168,-0.52647 -6.70197,0.10398 -5.92704,0.99345 -6.04411,-0.0154 -8.30235,0 -9.27948,-1.56623 -17.20899,-1.49533 -24.90714,-1.14378 z"
         id="path5175-9" />
      <path
         style="fill:#f8db01;fill-opacity:1;stroke:#000000;stroke-width:0.276106px;stroke-linecap:butt;stroke-linejoin:miter;stroke-opacity:0"
         d="m -702.86131,362.13995 c 1.175,-0.42793 2.05964,-0.9143 2.70114,-1.44962 7.50458,-1.14221 12.99377,-0.66189 19.15767,-0.72481 2.84278,1.49309 3.46135,3.21975 3.2513,5.03341 -2.23394,0.25023 -3.51825,-0.5188 -3.7515,-2.41604 l -4.0516,-1.6107 3.05119,1.6107 -15.85634,-0.92614 c -1.68916,1.0719 -3.06604,0.6352 -4.50186,0.4832 z"
         id="path5199-6" />
      <path
         style="fill:#f8db01;fill-opacity:1;stroke:#000000;stroke-width:0.276106px;stroke-linecap:butt;stroke-linejoin:miter;stroke-opacity:0"
         d="m -782.84354,373.69665 c -2.97067,-0.8685 -5.8796,-0.73626 -8.20332,2.25496 1.75075,-0.11417 3.40138,-0.78617 5.15213,0.68455 2.28948,1.08328 2.82066,-2.2481 3.05119,-2.93951 z"
         id="path5201-8" />
      <path
         style="fill:#f8db01;fill-opacity:1;stroke:#000000;stroke-width:0.276106px;stroke-linecap:butt;stroke-linejoin:miter;stroke-opacity:0"
         d="m -792.09288,380.36753 c -3.05289,0.65815 -5.34312,2.10809 -5.11905,5.63146 1.35373,-0.901 2.22843,-2.21303 4.70999,-1.81497 2.64743,-0.16796 0.71215,-3.14345 0.40906,-3.81649 z"
         id="path5201-7-3" />
      <path
         style="fill:#f8db01;fill-opacity:1;stroke:#000000;stroke-width:0.276106px;stroke-linecap:butt;stroke-linejoin:miter;stroke-opacity:0"
         d="m -784.88139,388.25124 c -0.39286,2.52453 0.41275,4.77863 4.5514,5.93894 -0.52675,-1.34891 -1.70692,-2.4955 -0.31398,-4.19605 0.80417,-2.0375 -3.34884,-1.7153 -4.23742,-1.74289 z"
         id="path5201-72-4" />
      <path
         style="fill:#f8db01;fill-opacity:1;stroke:#000000;stroke-width:0.276106px;stroke-linecap:butt;stroke-linejoin:miter;stroke-opacity:0"
         d="m -756.8341,383.06194 c 0.24067,2.53689 -0.69957,4.75698 -4.90316,5.75466 0.60728,-1.32679 1.85496,-2.42607 0.56589,-4.17889 -0.68071,-2.06644 3.44807,-1.58282 4.33727,-1.57577 z"
         id="path5201-0-8" />
      <path
         style="fill:#f8db01;fill-opacity:1;stroke:#000000;stroke-width:0.276106px;stroke-linecap:butt;stroke-linejoin:miter;stroke-opacity:0"
         d="m -656.20011,381.76154 c -2.60319,-1.44279 -5.03465,-2.14617 -8.21912,0.27756 1.73,0.24441 3.53765,-0.0713 4.77186,1.70698 1.10667,0.44262 2.08686,0.41716 2.72101,0.14198 0.76137,-0.33036 0.83951,-1.39968 0.72625,-2.12652 z"
         id="path5201-6-49" />
      <path
         style="fill:#f8db01;fill-opacity:1;stroke:#000000;stroke-width:0.276106px;stroke-linecap:butt;stroke-linejoin:miter;stroke-opacity:0"
         d="m -667.84361,385.72196 c -3.10176,0.48807 -5.51008,1.80821 -5.58666,5.33563 1.42731,-0.82414 2.41166,-2.08482 4.85354,-1.55069 2.65553,-0.0215 0.97816,-3.09677 0.73312,-3.78494 z"
         id="path5201-75-9" />
      <path
         style="fill:#f8db01;fill-opacity:1;stroke:#000000;stroke-width:0.276106px;stroke-linecap:butt;stroke-linejoin:miter;stroke-opacity:0"
         d="m -662.50846,392.37777 c -2.60938,1.43554 -4.17316,3.41463 -2.51102,6.67902 0.90621,-1.21127 1.19126,-2.68253 3.69644,-2.96911 2.4286,-0.8649 -0.62238,-3.15579 -1.18542,-3.70991 z"
         id="path5201-1-2" />
      <path
         style="fill:#f8db01;fill-opacity:1;stroke:#000000;stroke-width:0.276106px;stroke-linecap:butt;stroke-linejoin:miter;stroke-opacity:0"
         d="m -643.61671,390.38799 c 0.90444,2.43786 0.57147,4.768 -3.27301,6.46166 0.24333,-1.40036 1.17255,-2.68786 -0.54955,-4.18029 -0.75892,-2.26017 2.12409,-3.53011 3.82256,-2.28137 z"
         id="path5201-00-5" />
      <path
         style="fill:#f8db01;fill-opacity:1;stroke:#000000;stroke-width:0.276106px;stroke-linecap:butt;stroke-linejoin:miter;stroke-opacity:0"
         d="m -677.42524,368.0942 -0.28294,-2.50564 c -1.57984,-0.15506 -3.15969,-0.12442 -4.73952,-2.33482 -4.60722,-0.34585 -5.92379,-0.60037 -15.42115,-1.08198 -1.36762,0.8478 -2.73523,1.02652 -4.10285,0.96808 -4.19719,1.77828 -8.39438,3.16188 -12.59157,7.11831 -2.51776,1.57172 -4.1151,1.74392 -3.25402,-1.82228 -2.0925,0.51277 -4.88321,0.16083 -4.66881,3.53068 -6.9461,-0.11493 -6.54691,3.71226 -9.47898,5.75161 3.75634,-0.86389 7.36287,-1.92088 10.18644,-3.98626 -1.18466,1.78106 -3.22203,3.50929 0.28294,5.58074 0.42588,-1.49842 1.29595,-2.63922 2.47585,-3.53067 2.60305,2.80413 6.08836,2.41242 9.40834,2.61954 -5.63213,1.82625 -10.0994,4.9921 -14.43081,8.31419 -2.88811,1.55305 -6.13757,1.03593 -5.02247,-2.10702 6.3449,-1.95873 4.6196,-4.96975 0.28294,-3.98626 -2.28723,3.17194 -4.57447,2.37913 -6.8617,0.74032 -0.77002,0.49381 -1.97864,2.04603 1.06112,3.70151 l -2.05146,0 c -0.28145,-1.77368 -0.91199,-4.9305 -4.31507,-2.22093 0.5426,1.83839 -0.84973,3.0209 -3.8907,3.64459 l 0.35373,1.53756 2.05139,-0.91114 2.40519,-0.45558 2.26361,1.13893 -0.91961,0.11389 -1.06106,-0.68335 -1.34406,0 c -1.71624,0.59631 -3.79256,0.92345 -2.97101,3.41679 3.1961,-1.45956 6.5755,-0.61913 6.0128,3.92932 5.31297,0.18368 6.68113,-1.68745 5.58843,-4.84046 l 1.344,2.22091 0.84889,-0.0569 0.21217,-2.27786 0.56595,0.1139 0.63667,1.36671 1.41479,0 0.14144,-1.42366 0.49516,0 0.63668,1.8223 c -2.82508,4.09054 3.13511,2.67953 2.3344,1.48061 2.65247,-3.22011 5.17542,-3.10366 7.63982,-1.48061 3.90968,-0.91939 2.39824,-2.41809 -1.20257,-3.01817 l 2.47585,0 1.5563,1.19587 c 1.81813,0.0676 3.34584,-1.11164 4.59808,-3.47375 l 0.28294,2.50567 c 1.34802,-0.70477 2.14696,-1.72487 4.14438,-2.02544 1.58222,-0.2381 2.38239,-1.72042 2.85877,-3.21364 0.20453,1.29078 -0.40641,2.58158 1.34407,3.87235 0.99911,-1.74255 1.26042,-4.21013 4.68656,-4.28078 1.51342,-0.0312 1.69665,-1.94461 2.03364,-3.00837 0.41975,0.88532 0.85141,1.76873 2.1929,2.50566 1.24189,-1.10097 0.83766,-2.20194 1.06111,-3.3029 0.69488,2.8573 3.03268,5.30944 6.08354,1.76532 -3.23715,0.70165 -3.3223,-0.49974 -2.82958,-2.05006 3.32583,0.53931 5.34544,0.0824 5.09326,-2.10702 -1.50913,1.07803 -3.01818,1.11903 -4.52731,0.68336 -0.22828,-1.03457 -1.35182,-2.61095 -3.29138,-2.37385 -3.1102,0.38022 -4.39125,-0.49122 -5.90473,-1.27073 3.55317,-0.0498 6.41963,-1.20529 8.2765,-3.98626 -0.20984,0.6117 -0.41478,1.2224 0.84883,1.53757 0.34693,-0.98005 1.04574,-1.73352 2.33441,-2.10703 0.33358,0.71111 -0.26511,1.6099 1.41477,2.05008 -0.0184,-2.40218 3.2087,-2.40941 5.2347,-3.3029 z"
         id="path5279-5" />
      <path
         style="fill:#f8db01;fill-opacity:1;stroke:#000000;stroke-width:0.276106px;stroke-linecap:butt;stroke-linejoin:miter;stroke-opacity:0"
         d="m -729.54601,380.62876 c -2.08875,-1.9094 -4.71986,-2.91698 -8.5414,-1.19005 1.60414,0.57604 3.45284,0.62399 4.11238,2.5906 1.36306,1.83474 3.81468,-0.88296 4.42902,-1.40055 z"
         id="path5201-60-3" />
      <path
         style="fill:#f8db01;fill-opacity:1;stroke:#000000;stroke-width:0.276106px;stroke-linecap:butt;stroke-linejoin:miter;stroke-opacity:0"
         d="m -741.14485,383.01037 c -2.8336,-1.12685 -5.74294,-1.25357 -8.46211,1.51321 1.75572,0.0419 3.4883,-0.47953 5.02696,1.13761 2.12715,1.27982 3.11136,-1.9841 3.43515,-2.65082 z"
         id="path5201-17-3" />
      <path
         style="fill:#f8db01;fill-opacity:1;stroke:#000000;stroke-width:0.276106px;stroke-linecap:butt;stroke-linejoin:miter;stroke-opacity:0"
         d="m -743.97783,390.97132 c 3.25763,-0.76473 5.54683,-0.47993 5.35217,2.49656 -1.76484,0.44794 -3.13144,1.17874 -2.65111,3.22139 -4.68881,-1.69804 -3.75157,-3.70489 -2.70106,-5.71795 z"
         id="path5308-3" />
      <path
         style="fill:#f8db01;fill-opacity:1;stroke:#000000;stroke-width:0.276106px;stroke-linecap:butt;stroke-linejoin:miter;stroke-opacity:0"
         d="m -717.47398,391.28433 c -0.0238,2.54419 -1.1918,4.69309 -5.48435,5.40397 0.74306,-1.28121 2.10074,-2.29253 0.99844,-4.12608 -0.46338,-2.10505 3.60054,-1.34487 4.48591,-1.27789 z"
         id="path5201-9-7" />
      <path
         style="fill:#f8db01;fill-opacity:1;stroke:#000000;stroke-width:0.3137148px;stroke-linecap:butt;stroke-linejoin:miter;stroke-opacity:0"
         d="m -793.50058,421.58718 c -1.65615,0.77028 -3.12518,0.18421 -4.59755,-0.95582 -0.81323,1.23402 -0.36305,5.54582 3.53656,5.14677 2.57038,0.007 2.7155,-3.06252 1.06099,-4.19095 z"
         id="path5133-5-5" />
      <path
         style="fill:#08188d;fill-opacity:1;stroke:#000000;stroke-width:0.32294112px;stroke-linecap:butt;stroke-linejoin:miter;stroke-opacity:0"
         d="m -740.69484,415.69813 c -1.84121,0.11448 -3.68248,0.24954 -5.52369,-0.1145 -1.16689,-0.52152 -1.87715,-1.04307 -2.27444,-1.56461 l -0.54152,0.41978 c 0.58671,0.46159 1.0861,0.94033 2.13001,1.48831 l -0.0361,1.29746 c 0.38272,1.35276 1.77818,1.02447 2.09393,-0.0381 l 0,-0.83953 c 1.35986,0.18585 2.79193,-0.11936 4.15179,-0.1145 l 0,-0.53426 z"
         id="path5037-8-0" />
      <path
         style="fill:#08188d;fill-opacity:1;stroke:#000000;stroke-width:0.32294112px;stroke-linecap:butt;stroke-linejoin:miter;stroke-opacity:0"
         d="m -733.79923,415.58363 c 1.04506,0.33481 2.08855,0.67281 3.32141,0.61061 1.66077,-0.99662 3.32146,-1.36641 4.98215,-1.45014 l 0.0361,0.91586 c -0.68588,-0.0637 -1.55288,-0.13395 -2.52716,0.76326 0.28988,2.65007 -2.40443,1.79495 -2.16614,0.5724 -1.25157,0.0386 -2.50313,0.0638 -3.75463,-0.68691 l 0.10829,-0.72508 z"
         id="path5039-1-3" />
      <path
         style="fill:#08188d;fill-opacity:1;stroke:#000000;stroke-width:0.32294112px;stroke-linecap:butt;stroke-linejoin:miter;stroke-opacity:0"
         d="m -738.78141,422.71983 c 0.64498,1.56979 1.82569,1.86387 2.56331,0.0763 l 1.44411,0 c -0.28049,0.82076 -0.36169,1.70629 -1.84127,2.13702 l -1.69685,-0.0382 c -1.52974,-0.61435 -1.69262,-1.92093 -1.80507,-2.21335 l 1.33577,0.0382 z"
         id="path5041-8-8" />
      <path
         style="fill:#08188d;fill-opacity:1;stroke:#000000;stroke-width:0.32294112px;stroke-linecap:butt;stroke-linejoin:miter;stroke-opacity:0"
         d="m -747.60739,421.25312 c 2.73844,4.2242 5.60993,8.01006 10.61975,4.74921 l 0.76586,-0.054 c 5.136,3.911 7.92248,-0.87971 10.36456,-3.8857 l 0.71482,0.32381 c -2.84782,3.04632 -4.66248,8.27677 -10.56876,4.85715 -0.5454,-0.42793 -1.20958,-0.22744 -1.88913,0.054 -6.65745,2.78647 -8.97953,-2.97856 -10.21136,-5.50477 l 0.20426,-0.53968 z"
         id="path5043-2-2" />
      <path
         style="fill:#08188d;fill-opacity:1;stroke:#000000;stroke-width:0.32294112px;stroke-linecap:butt;stroke-linejoin:miter;stroke-opacity:0"
         d="m -742.85915,427.51344 2.09339,3.93968 2.80807,-4.31745 -0.86796,0.10794 -1.88913,3.13015 -1.58277,-2.80634 -0.5616,-0.054 z"
         id="path5045-6-5" />
      <path
         style="fill:#08188d;fill-opacity:1;stroke:#000000;stroke-width:0.32294112px;stroke-linecap:butt;stroke-linejoin:miter;stroke-opacity:0"
         d="m -733.66889,427.89123 c 0.64566,1.27437 0.9674,2.45089 2.50177,3.99364 0.81957,-1.4931 1.17126,-2.98622 1.17425,-4.47937 l -0.51055,0.32381 c -0.16165,0.83651 -0.0742,1.89284 -0.86796,3.13017 l -1.53165,-2.86032 -0.76586,-0.10793 z"
         id="path5047-6-2" />
      <path
         style="fill:#08188d;fill-opacity:1;stroke:#000000;stroke-width:0.32294112px;stroke-linecap:butt;stroke-linejoin:miter;stroke-opacity:0"
         d="m -742.75705,427.70231 2.75709,5.8286 0.89347,0.67462 6.10129,0.16189 0.63825,-0.62064 1.14878,-1.88889 -0.40845,-0.53968 -0.74033,1.13334 -2.37416,-1.94285 -0.0511,0.64759 1.50613,1.83494 0,0.62064 -5.99913,0.027 0,-0.70157 1.63382,-1.64602 2.93575,-0.10796 0,-0.70158 -3.03784,0.054 -0.66377,0.35081 -1.42955,1.75396 -2.9103,-4.93809 z"
         id="path5049-0-0" />
      <path
         style="fill:#08188d;fill-opacity:1;stroke:#000000;stroke-width:0.32294112px;stroke-linecap:butt;stroke-linejoin:miter;stroke-opacity:0"
         d="m -754.59432,436.95405 c 0.52266,-1.95643 0.7376,-4.14047 3.10481,-4.73202 3.45618,-2.45481 1.76335,-5.40444 1.22748,-8.24286 l -0.64981,0 c 0.65723,2.86232 1.93255,5.9787 -0.7221,7.47962 -2.03308,0.67041 -3.26185,2.50981 -3.75463,5.41894 l 0.79425,0.0763 z"
         id="path5051-3-3" />
      <path
         style="fill:#08188d;fill-opacity:1;stroke:#000000;stroke-width:0.32294112px;stroke-linecap:butt;stroke-linejoin:miter;stroke-opacity:0"
         d="m -755.47011,432.10076 c 1.74401,-1.01024 2.30452,-2.39577 2.70597,-3.83177 l -0.76587,-0.21585 c 0,1.38566 -0.94337,2.57093 -2.29751,3.66983 l 0.35741,0.37779 z"
         id="path5053-8-7" />
      <path
         style="fill:#f8db01;fill-opacity:1;stroke:#000000;stroke-width:0.3137148px;stroke-linecap:butt;stroke-linejoin:miter;stroke-opacity:0"
         d="m -756.61428,404.6631 c -0.92206,2.9258 -1.84332,5.85135 1.40036,7.69456 -1.42541,0.72783 -2.37497,2.11522 -3.00082,3.95125 -2.81086,2.6116 -3.58229,2.1091 -4.90145,2.70348 2.70079,1.85702 5.40159,0.21744 8.10238,-1.14377 l 0.10005,0.51989 c -2.78458,1.21628 -5.52492,2.46021 -5.70168,5.30299 -1.53377,2.57271 -3.06759,2.16965 -4.60135,3.01543 2.80084,1.14999 5.60169,0.71742 8.40247,-0.62389 l -0.20011,0.72788 -4.70134,1.35174 c -2.59114,-0.006 -3.5013,1.5402 -3.70106,3.74329 -2.1006,3.66017 -4.20122,3.67845 -6.30182,5.09505 4.91827,1.81893 9.55392,0.92383 14.40413,-2.59952 l 0.60019,0.10398 c -4.03785,4.0689 -8.77166,3.79704 -13.3038,4.7831 -3.13532,1.10805 -4.92492,3.61491 -6.20181,6.65474 -4.01411,4.30719 -7.62737,4.03154 -11.40324,5.61493 4.40124,1.66755 8.80255,1.58902 13.20381,0.20795 -1.07841,1.52505 -1.6539,3.0501 -1.40043,4.57513 2.96748,-2.47376 5.93508,-2.32282 8.90255,-3.01543 l 6.20175,0.20798 c 3.32114,-0.3142 5.67936,-1.07322 6.60191,-2.49554 l 0,0.62388 c -3.06576,4.06219 3.3212,1.82561 5.00144,1.97563 -2.1603,-0.82428 -4.30862,-1.64973 -1.00028,-3.01543 4.63553,-1.05156 7.39588,-3.87524 9.10259,-7.69453 l 0.40015,0.20795 c -0.27164,1.55626 -2.90484,2.73484 -0.10005,4.7831 l 5.50157,0 c 0.967,0.14842 1.93392,0.7564 2.90084,2.28757 0.009,-1.55324 -1.30861,-2.76202 -2.30064,-4.05525 l 0,-1.97563 0.3001,0 0,1.76769 6.0017,3.84728 c 0.61244,-1.20885 0.97038,-2.5059 0,-4.2632 l 6.0017,-0.31194 c 3.03119,-0.82397 3.11736,-2.41327 4.20122,-3.74331 l -5.60164,0 0.10006,-1.55968 c 3.28451,-0.48922 5.47455,-1.95551 7.70216,-4.36719 -2.10373,0.0511 -3.9595,-1.18686 -5.80166,-2.49552 l 0.60018,-0.51991 2.30064,1.24777 -0.20004,-5.19902 c 1.04487,0.3114 2.00634,1.14278 3.30099,-0.10397 -3.42132,-2.69016 -2.53703,-5.06059 -2.40069,-7.48659 l -2.7008,-1.76766 0.30009,-0.41593 4.50131,2.7035 c 0.33229,-5.42705 -1.30759,-7.31293 -3.90111,-7.48658 1.71127,-2.10306 2.85659,-4.79441 3.50102,-8.0065 -3.60108,-0.69445 -7.20209,-0.34566 -10.8031,3.63933 l -0.40016,-0.41594 2.00055,-2.39154 c -7.83549,-0.94296 -15.67113,-2.41253 -23.5067,0.10397 l 0,1.76768 -0.60013,-0.104 c -0.81547,-1.70304 -2.88898,-3.07916 -6.902,-3.95125 z"
         id="path5035-3-2" />
      <path
         style="fill:#17438e;fill-opacity:1;stroke:#000000;stroke-width:0.3137148px;stroke-linecap:butt;stroke-linejoin:miter;stroke-opacity:0"
         d="m -742.99085,413.97296 c -1.80364,0.11029 -3.60734,0.2404 -5.41098,-0.11026 -1.14308,-0.50242 -1.83876,-1.00485 -2.22802,-1.50727 l -0.5305,0.40437 c 0.57481,0.44468 1.06399,0.90585 2.08659,1.43374 l -0.0354,1.24995 c 0.3749,1.30314 1.7419,0.98688 2.05119,-0.0368 l 0,-0.80879 c 1.33208,0.17903 2.73489,-0.11497 4.06705,-0.11029 l 0,-0.51468 z"
         id="path5037-9-9" />
      <path
         style="fill:#17438e;fill-opacity:1;stroke:#000000;stroke-width:0.3137148px;stroke-linecap:butt;stroke-linejoin:miter;stroke-opacity:0"
         d="m -736.23607,413.8627 c 1.02368,0.32249 2.04595,0.64811 3.25361,0.58819 1.6268,-0.96008 3.25361,-1.31632 4.88041,-1.39698 l 0.0354,0.88229 c -0.67192,-0.0614 -1.52116,-0.12904 -2.47555,0.73526 0.28396,2.55294 -2.35545,1.72919 -2.12198,0.55145 -1.22598,0.0372 -2.45195,0.0615 -3.67799,-0.66174 l 0.10611,-0.69847 z"
         id="path5039-8-7" />
      <path
         style="fill:#17438e;fill-opacity:1;stroke:#000000;stroke-width:0.3137148px;stroke-linecap:butt;stroke-linejoin:miter;stroke-opacity:0"
         d="m -741.11649,420.73729 c 0.6317,1.51225 1.78846,1.79558 2.51089,0.0735 l 1.41465,0 c -0.27471,0.79066 -0.35434,1.64374 -1.80364,2.05872 l -1.6622,-0.0368 c -1.49857,-0.59186 -1.65812,-1.85053 -1.76824,-2.13224 l 1.30854,0.0368 z"
         id="path5041-80-5" />
      <path
         style="fill:#17438e;fill-opacity:1;stroke:#000000;stroke-width:0.3137148px;stroke-linecap:butt;stroke-linejoin:miter;stroke-opacity:0"
         d="m -749.76231,419.32434 c 2.68256,4.06937 5.49545,7.71645 10.40297,4.57513 l 0.7502,-0.052 c 5.03112,3.76764 7.76077,-0.84748 10.15296,-3.74328 l 0.70017,0.31194 c -2.78961,2.93467 -4.56724,7.97338 -10.35299,4.67911 -0.53417,-0.41225 -1.18487,-0.21909 -1.85046,0.052 -6.52153,2.68431 -8.79624,-2.86936 -10.00295,-5.30301 l 0.2001,-0.51989 z"
         id="path5043-8-3" />
      <path
         style="fill:#17438e;fill-opacity:1;stroke:#000000;stroke-width:0.3137148px;stroke-linecap:butt;stroke-linejoin:miter;stroke-opacity:0"
         d="m -745.11099,425.35519 2.05058,3.79528 2.75082,-4.1592 -0.85026,0.10397 -1.85053,3.01543 -1.55044,-2.70349 -0.55017,-0.052 z"
         id="path5045-7-4" />
      <path
         style="fill:#17438e;fill-opacity:1;stroke:#000000;stroke-width:0.3137148px;stroke-linecap:butt;stroke-linejoin:miter;stroke-opacity:0"
         d="m -736.10845,425.71913 c 0.63252,1.22765 0.94772,2.36107 2.45072,3.84728 0.80289,-1.4384 1.14737,-2.8768 1.15036,-4.3152 l -0.50014,0.31195 c -0.15839,0.80584 -0.0728,1.82344 -0.85026,3.01542 l -1.50041,-2.75548 -0.75027,-0.10397 z"
         id="path5047-7-3" />
      <path
         style="fill:#17438e;fill-opacity:1;stroke:#000000;stroke-width:0.3137148px;stroke-linecap:butt;stroke-linejoin:miter;stroke-opacity:0"
         d="m -745.01093,425.53717 2.70079,5.61493 0.87524,0.64988 5.97667,0.15597 0.62516,-0.5979 1.12538,-1.81966 -0.40014,-0.51988 -0.72524,1.09177 -2.32562,-1.87163 -0.0497,0.62388 1.47544,1.76766 0,0.5979 -5.87668,0.026 0,-0.67586 1.6004,-1.5857 2.87585,-0.10399 0,-0.67586 -2.97584,0.052 -0.65022,0.33795 -1.40036,1.68967 -2.8508,-4.75709 z"
         id="path5049-8-2" />
      <path
         style="fill:#17438e;fill-opacity:1;stroke:#000000;stroke-width:0.3137148px;stroke-linecap:butt;stroke-linejoin:miter;stroke-opacity:0"
         d="m -756.60658,434.44974 c 0.51198,-1.88468 0.72257,-3.98868 3.04145,-4.55856 3.38559,-2.36484 1.72734,-5.20633 1.20243,-7.94073 l -0.63661,0 c 0.64382,2.75742 1.89315,5.75956 -0.70732,7.20547 -1.99157,0.64583 -3.19529,2.41782 -3.678,5.2203 l 0.77805,0.0735 z"
         id="path5051-38-1" />
      <path
         style="fill:#18448d;fill-opacity:1;stroke:#000000;stroke-width:0.3137148px;stroke-linecap:butt;stroke-linejoin:miter;stroke-opacity:0"
         d="m -757.46454,429.77435 c 1.70842,-0.97321 2.25749,-2.30796 2.65077,-3.69131 l -0.7502,-0.20794 c 0,1.33487 -0.92418,2.47668 -2.25062,3.53531 l 0.35005,0.36394 z"
         id="path5053-3-1" />
      <path
         style="fill:#15448e;fill-opacity:1;stroke:#000000;stroke-width:0.3137148px;stroke-linecap:butt;stroke-linejoin:miter;stroke-opacity:0"
         d="m -774.26936,451.7142 c 2.71339,-1.15214 5.44121,-2.85217 7.25206,-5.30299 2.87095,-5.98586 6.50804,-6.96601 10.30297,-6.9147 l -0.1,0.88383 c -2.64648,0.14534 -6.02418,-0.49742 -9.85286,6.70673 -3.1861,3.66235 -6.91303,4.99591 -8.40242,5.8229 l 0.80024,-1.19577 z"
         id="path5055-7-3" />
      <path
         style="fill:#18448d;fill-opacity:1;stroke:#000000;stroke-width:0.3137148px;stroke-linecap:butt;stroke-linejoin:miter;stroke-opacity:0"
         d="m -728.40623,445.37141 c -0.79608,-0.67588 -0.76293,-1.35174 -0.50012,-2.02762 1.01611,-0.86651 1.02952,-1.733 1.00026,-2.59951 l 0.45017,0 c -0.19058,0.85655 0.46189,1.44791 -0.90028,2.80748 0.032,0.69319 -0.0497,1.17842 0.7502,1.87163 l -0.80023,-0.052 z"
         id="path5057-10-2" />
      <path
         style="fill:#16458e;fill-opacity:1;stroke:#000000;stroke-width:0.3137148px;stroke-linecap:butt;stroke-linejoin:miter;stroke-opacity:0"
         d="m -723.65487,441.47213 c -2.56949,-1.62501 -4.13497,-3.45009 -4.6513,-4.93905 l 1.0503,-0.15597 c 0.73414,1.14377 1.05731,2.49551 3.55098,3.63931 l 0.0497,1.45571 z"
         id="path5059-7-5" />
      <path
         style="fill:#18448d;fill-opacity:1;stroke:#000000;stroke-width:0.3137148px;stroke-linecap:butt;stroke-linejoin:miter;stroke-opacity:0"
         d="m -721.65424,433.04974 c -1.14879,-1.49101 -2.96244,-3.43344 -4.60136,-2.49553 l 0.20004,-0.67586 c 1.88491,-0.84095 3.4723,1.10076 5.10149,2.65148 l -0.70017,0.51991 z"
         id="path5061-3-3" />
      <path
         style="fill:#144689;fill-opacity:1;stroke:#000000;stroke-width:0.3137148px;stroke-linecap:butt;stroke-linejoin:miter;stroke-opacity:0"
         d="m -718.90349,428.52658 c -2.84829,-1.03331 -5.51308,-2.22558 -6.00171,-5.30299 l -0.70025,0 c 0.0744,3.32709 3.31385,4.81164 6.65193,6.23882 l 0.0497,-0.93583 z"
         id="path5063-4-5" />
      <path
         style="fill:#f8db01;fill-opacity:1;stroke:#000000;stroke-width:0.3137148px;stroke-linecap:butt;stroke-linejoin:miter;stroke-opacity:0"
         d="m -766.91725,432.94575 c -2.1006,2.25429 -4.2012,2.90431 -6.30181,4.15922 1.1362,0.49326 2.13832,1.02132 4.30127,1.24777 -2.6032,0.79464 -4.66562,2.15144 -6.20183,4.05522 l -6.50185,0 3.10087,-3.53534 c -1.10509,-1.44496 -2.79676,-2.2621 -3.31541,-1.19676 -0.96209,1.97642 -2.12429,0.99731 -3.18643,1.19676 1.31201,-3.00279 1.568,-5.05424 -1.10033,-4.47114 -0.71829,1.58833 -1.72564,1.97513 -2.70073,2.49552 1.10816,-1.9104 0.5062,-2.93194 -0.5002,-3.74328 -2.10986,-3.1109 1.37354,-5.39116 2.60081,-8.00648 -2.92153,1.0839 -7.42692,5.31119 -7.70224,1.14377 2.96366,-0.22414 3.34019,-5.35974 0.3001,-5.19902 0.48366,-5.45202 3.63491,-3.59362 7.00199,-1.14377 l -1.30038,-1.97562 1.50048,-1.0398 1.40036,-0.104 c -0.13933,-1.56078 -1.33774,-2.17787 -3.34353,-2.07568 -2.26566,0.0161 -4.22291,-0.22437 -3.8585,-2.39546 1.47768,-0.0565 5.64785,0.24704 4.40118,-3.53533 3.57467,-3.34179 3.82665,0.22414 4.90145,2.0796 l 1.40036,-0.62389 c -1.63137,-2.93756 1.78131,-6.04378 2.40069,-1.97563 3.46238,1.55543 3.75669,0.54945 5.00145,0.31194 0.60019,-1.08968 1.20038,-1.09006 1.80051,-0.51988 l 1.10032,0.20794 -2.90083,1.76769 -0.1,1.66368 0.80016,-0.10398 0,-1.03981 2.90084,-2.49552 c 0.92567,-0.46187 1.74163,-0.12597 2.4007,1.35174 -2.12654,1.96604 -2.18419,5.42443 2.6008,4.47114 -2.46032,3.46352 -4.97727,5.27975 -7.70223,1.03982 -1.50667,-0.14618 -5.1324,-0.0717 -2.50075,3.32737 2.41601,1.76862 1.46577,5.87004 1.70052,9.15027 2.961,4.72162 5.11722,4.00583 7.60218,5.51094 z"
         id="path5131-96-1" />
      <path
         style="fill:#f8db01;fill-opacity:1;stroke:#000000;stroke-width:0.3137148px;stroke-linecap:butt;stroke-linejoin:miter;stroke-opacity:0"
         d="m -793.66961,421.50929 c -1.65615,0.7703 -3.12518,0.18422 -4.59755,-0.95581 -0.81323,1.23402 -0.36305,5.54581 3.53656,5.14677 2.57038,0.006 2.7155,-3.06252 1.06099,-4.19096 z"
         id="path5133-5-2" />
      <path
         style="fill:#f8db01;fill-opacity:1;stroke:#000000;stroke-width:0.3137148px;stroke-linecap:butt;stroke-linejoin:miter;stroke-opacity:0"
         d="m -789.21358,409.30414 c -3.00926,-0.8269 -5.2417,0.19194 -6.9316,2.49985 1.83991,-0.44612 3.5827,-0.38716 5.23408,0.14705 2.16908,-0.88232 2.73489,-1.76461 1.69752,-2.6469 z"
         id="path5135-1-2" />
      <path
         style="fill:#f8db01;fill-opacity:1;stroke:#000000;stroke-width:0.3137148px;stroke-linecap:butt;stroke-linejoin:miter;stroke-opacity:0"
         d="m -778.53319,407.61306 c 0.48537,-0.95585 -0.15703,-1.91167 -1.55608,-2.86748 2.54553,-0.0313 5.12055,-0.11379 6.01213,2.72042 -1.48537,0.34346 -2.97074,0.92409 -4.45605,0.14706 z"
         id="path5137-0-2" />
      <path
         style="fill:#f8db01;fill-opacity:1;stroke:#000000;stroke-width:0.3137148px;stroke-linecap:butt;stroke-linejoin:miter;stroke-opacity:0"
         d="m -768.56012,409.81879 c -2.20984,2.84437 -0.1918,4.39737 1.90975,3.60275 2.63715,-2.4039 1.59741,-5.52766 -0.49516,-6.69081 0.1886,2.0097 -0.28288,3.03904 -1.41459,3.08806 z"
         id="path5139-9-6" />
      <path
         style="fill:#f8db01;fill-opacity:1;stroke:#000000;stroke-width:0.3137148px;stroke-linecap:butt;stroke-linejoin:miter;stroke-opacity:0"
         d="m -715.30248,436.06517 c -2.15736,1.8362 -4.20372,3.74169 -8.30235,4.36716 l 0.1,0.51992 6.3018,-0.104 c -1.85434,5.5368 -6.34155,4.99167 -10.50295,5.19902 0.36714,1.25914 0.42643,2.66052 -0.40014,4.47116 l -4.30125,-2.91145 0.70024,3.53534 -4.8014,-2.59952 -4.40124,0 -1.13231,-1.09547 -8.07034,3.79896 0,1.35174 1.50042,0.41591 0,0.93583 -5.50158,0.93583 -1.62443,-1.8711 -5.07753,1.35118 c -0.3131,2.69231 -1.05377,5.19749 -4.90138,6.34282 -4.4282,1.42479 -7.80005,4.13071 -11.11873,6.9011 l -4.88042,0.44113 0.0707,-1.83812 c 7.392,-1.63169 1.1172,-4.38464 -1.20242,-3.16157 -0.76661,2.53785 -1.70502,4.75975 -4.88042,2.86749 l -2.05126,0 0,0.80875 2.12197,0.36764 0.0707,2.6469 3.11217,0 -0.14144,0.73527 -3.25368,0 -0.77804,-0.88232 0,-1.98517 c -3.11068,-1.06663 -5.68869,-1.28128 -6.36579,1.54401 5.35204,-0.58118 4.84707,1.7977 2.61707,4.85267 0.19052,1.53548 1.34475,1.81858 3.04146,1.39697 l 0.91948,-1.02935 2.82923,0 -0.21222,0.58822 -2.33413,0.22055 -0.9902,0.80879 c -0.51675,3.81664 1.37714,2.37096 2.61707,2.3528 1.99899,-2.57214 4.10748,-1.95861 6.295,0.95585 5.72062,-0.10678 5.01015,-2.06264 1.90975,-4.70562 l 2.6878,1.47051 0.0707,-2.05872 -0.91948,-1.98517 0.4951,0 0.84876,1.39698 1.55609,-1.1029 c 1.8229,0.13417 3.80575,0.51781 4.17317,-1.61755 l 0.4951,-0.0735 c -0.77125,5.23591 2.52259,4.51751 5.7999,3.8233 0.66668,-1.85813 1.85951,-3.35165 6.43657,-2.49985 2.77485,-1.163 3.29037,-2.39124 -0.70732,-3.74979 0.80302,-1.8567 2.12299,-1.56415 3.67799,-0.29411 1.18317,-4.31512 2.88124,-1.96686 3.39512,-0.95582 0.2581,-1.36636 1.08829,-2.64823 2.74462,-2.59346 1.28581,0.0425 1.46523,-1.95891 0.36749,-3.50913 l 1.27314,0.95582 1.62687,-1.76459 0.42438,0.36761 c -1.42866,1.1029 -1.95773,2.20577 -0.56588,3.30863 0.74565,-2.48032 3.61381,-3.03003 5.72925,-4.26445 2.16084,-0.88229 1.58923,-1.76461 2.05118,-2.6469 0.41827,1.19572 0.52336,2.48446 2.19264,3.30862 3.64464,-6.22649 8.95922,-6.66628 13.43888,-9.99942 0.55929,-1.63953 -0.36101,-2.71245 -2.33412,-3.38214 l 0,-0.51469 0.77803,0 c 2.26566,0.81063 2.58454,2.26029 2.33413,3.89683 -2.83426,1.96732 -6.42534,3.46265 -8.41696,5.95554 l 4.2438,0 5.37559,-4.41151 0.70732,0.14705 -2.54635,2.86748 c 6.801,1.3886 7.81726,-2.47649 11.03405,-4.48503 l 0.70732,0.0735 -1.62686,2.35282 c 2.97073,-0.21781 5.9414,-0.92128 8.91213,-3.08806 6.88445,-1.29348 13.76896,-0.70507 20.6534,-0.95584 3.69991,2.21929 3.90015,5.77888 4.10244,9.33769 0.84005,1.3 2.03757,2.15413 3.81943,2.2793 -1.25579,1.13404 0.77436,1.98345 1.55609,2.94099 0.86666,0.98034 0.97195,1.96067 0.14144,2.94103 2.70889,-0.21655 3.63096,-1.94224 3.32433,-4.70562 0.46338,1.36713 0.54261,2.86735 2.61707,3.67625 0.92269,1.31693 2.33849,2.61155 -0.91947,4.1174 3.60673,0.25447 7.55289,0.8749 6.22434,-4.19094 2.84095,3.28528 5.97428,1.09968 8.9828,1.24994 l 0.14144,2.64692 c -0.3651,0.92359 -0.60999,1.88131 1.06099,3.38214 0.16995,1.88907 -0.60735,2.62924 -1.55609,3.16158 l -4.45605,0.14706 0,-1.39698 c 3.66432,-1.46453 1.34094,-3.21619 0.91949,-2.941 l -1.48537,-0.0735 c -0.20991,4.18964 -3.09632,2.05599 -5.23408,1.69108 -2.46393,-0.45661 -3.4103,1.34696 -0.14144,2.13225 l 0.14144,0.73523 c -0.86306,-0.52628 -1.72584,-1.04931 -2.40478,0.14706 -0.44187,-3.6571 -3.5693,-2.5761 -4.10244,-1.19743 1.35746,1.72901 1.67056,3.61463 -0.49511,4.48681 -0.27069,1.08576 -0.30207,1.81469 0.91948,1.9309 l 1.90975,-1.1764 2.05119,-0.36761 -0.14144,0.44114 -2.1219,0.51467 -1.41465,1.17641 c 0.23666,0.75097 0.89667,1.20855 2.26334,1.1764 1.96597,-2.58542 3.38226,-1.457 4.59755,1.02935 4.15934,1.10439 3.81351,-1.30359 2.75851,-4.26447 0.76886,0.53322 1.36755,1.13715 1.20242,2.05872 l 0.42438,0 c 1.1311,-1.00126 0.59788,-1.75536 0.4951,-2.57338 l 1.27315,1.1764 2.54635,-1.1764 c 0.3357,1.7781 0.66656,3.5625 3.39505,2.27927 0.80814,-2.33313 2.30549,-3.15371 4.80971,-1.76461 2.92439,-0.0951 1.39831,-1.66207 0.32106,-3.08069 l -2.90083,0 0,-0.62387 2.70072,-0.10397 0.10005,-2.70351 4.90139,2.39156 c 1.10461,-2.40335 -0.79895,-4.3064 -4.40125,-5.92688 1.30037,-0.66313 2.60074,-0.39963 3.9011,0.10397 0.4297,-2.99228 -2.92764,-3.62258 -5.10141,-4.99104 l 2.30064,-0.72786 -1.80051,-1.55971 c 3.08536,1.18378 6.18793,2.41446 7.80222,-0.41591 l -3.63811,-0.7338 c -1.17771,-1.01937 -2.05323,-0.46748 -3.06378,-0.61797 l 0.1,-0.51989 2.90083,0 c 2.12769,-1.64081 0.50143,-2.54994 -0.20004,-3.6393 -0.0815,1.13836 -0.47863,2.04794 -1.25715,2.23065 -1.14096,0.26784 -2.65723,0.13485 -2.74401,1.30466 -1.07427,1.0007 -1.79629,0.53712 -2.50068,0 l -3.60109,-4.88705 c 0.70964,-0.65503 1.93957,-0.63387 3.40104,-0.31195 -0.30017,-0.76457 -0.77382,-1.96472 -1.60495,-1.781 -3.90963,0.86425 -4.81597,-1.13201 -6.29732,-2.48219 l 5.60156,0.31194 c -0.61843,-1.29209 -2.48292,-2.35257 -6.99525,-2.85118 -2.04057,-0.22548 -3.04513,-2.59136 -3.80786,-4.42744 1.03921,1.147 1.48217,2.36283 4.10121,3.32737 l -1.5004,-2.80748 c 1.20004,0.76251 1.14143,1.52505 3.701,2.28757 l 0.10005,-1.87165 c 1.1769,0.71787 1.57325,1.61606 4.30119,1.97562 -1.14661,-0.79717 -1.15641,-1.59434 -1.00027,-2.39154 5.33713,-0.97888 10.70189,-5.59068 4.40131,-13.20549 -5.03914,-5.3487 -11.01444,-5.58828 -17.10491,-5.19902 l -1.50048,0.83185 -0.20004,-0.31194 c 3.6051,-1.95839 -0.84271,-4.62934 -1.60047,-4.57514 -4.2771,-0.74391 -8.5983,-0.72565 -12.6141,-0.0683 -5.59734,0.91623 -10.76982,2.03555 -15.99404,0.90016 l 0,0.62388 4.80133,2.18359 12.90372,-0.31194 -0.3001,0.72786 -13.20374,0.20797 -4.40125,-2.1836 c -11.21578,-0.44289 -14.49478,-6.06553 -3.40097,-8.83832 l 8.10225,-0.83183 0.80023,-0.72786 0.30009,0.41591 -1.00027,0.72786 c 0.48101,2.4775 3.89621,3.34027 8.90255,3.32737 11.30325,1.52337 29.75809,-6.72407 33.90974,1.97562 1.61626,-1.43416 4.99497,-4.661 -4.40131,-7.38259 l -7.00199,0 0,-0.62388 7.2021,0 c 4.12422,-0.5017 6.85953,-4.29654 2.80077,-7.07067 -5.45754,8.28239 -22.66992,6.66977 -31.40898,3.53534 -3.91622,-0.83625 -9.85388,-2.0721 -10.40296,1.76767 l 1.00027,1.55969 -0.60019,0.104 -0.70018,-0.93583 c -8.12389,0.18275 -17.43979,1.90542 -19.40556,5.40696 -3.09135,3.33872 -0.16512,11.71134 15.60451,11.33387 4.76798,0.20638 9.53602,-0.31103 14.30407,-1.76768 l -0.10006,0.51991 c -5.55194,1.17702 -11.2006,1.95189 -16.50466,4.1592 -4.03893,0.72944 -7.6198,0.77879 -9.80283,-1.24775 0.14756,5.51723 7.90023,4.08959 10.9031,3.63931 4.94371,-0.74651 9.65711,-1.01418 13.80392,-0.10399 7.62771,1.08676 15.26317,2.18416 18.20525,-3.2234 l -1.50048,-1.35174 0.50021,0 1.70045,1.03982 c 14.46409,-2.91603 25.1847,13.7078 3.50096,11.95773 -8.75403,-4.01264 -11.79903,-3.65244 -15.70442,-3.95125 -1.86898,-0.15506 -3.32168,-0.52647 -6.70197,0.10397 -5.92704,0.99345 -6.04411,-0.0154 -8.30235,0 -9.27948,-1.56622 -17.20899,-1.49533 -24.90714,-1.14377 z"
         id="path5175-9-4" />
      <path
         style="fill:#f8db01;fill-opacity:1;stroke:#000000;stroke-width:0.276106px;stroke-linecap:butt;stroke-linejoin:miter;stroke-opacity:0"
         d="m -703.59623,451.3542 c 1.175,-0.42793 2.05964,-0.9143 2.70114,-1.44962 7.50458,-1.14221 12.99377,-0.66188 19.15767,-0.72481 2.84278,1.4931 3.46135,3.21975 3.2513,5.03341 -2.23394,0.25024 -3.51825,-0.5188 -3.7515,-2.41604 l -4.0516,-1.61069 3.05119,1.61069 -15.85634,-0.92614 c -1.68916,1.0719 -3.06604,0.63521 -4.50186,0.4832 z"
         id="path5199-6-0" />
      <path
         style="fill:#f8db01;fill-opacity:1;stroke:#000000;stroke-width:0.276106px;stroke-linecap:butt;stroke-linejoin:miter;stroke-opacity:0"
         d="m -783.57846,462.9109 c -2.97067,-0.8685 -5.8796,-0.73626 -8.20332,2.25496 1.75075,-0.11417 3.40138,-0.78617 5.15213,0.68456 2.28948,1.08328 2.82066,-2.24811 3.05119,-2.93952 z"
         id="path5201-8-7" />
      <path
         style="fill:#f8db01;fill-opacity:1;stroke:#000000;stroke-width:0.276106px;stroke-linecap:butt;stroke-linejoin:miter;stroke-opacity:0"
         d="m -792.82779,469.58178 c -3.05289,0.65815 -5.34312,2.10809 -5.11906,5.63146 1.35374,-0.90099 2.22843,-2.21303 4.70999,-1.81497 2.64743,-0.16796 0.71216,-3.14345 0.40907,-3.81649 z"
         id="path5201-7-3-0" />
      <path
         style="fill:#f8db01;fill-opacity:1;stroke:#000000;stroke-width:0.276106px;stroke-linecap:butt;stroke-linejoin:miter;stroke-opacity:0"
         d="m -785.6163,477.46549 c -0.39287,2.52454 0.41274,4.77863 4.55139,5.93894 -0.52675,-1.34891 -1.70692,-2.4955 -0.31398,-4.19604 0.80417,-2.0375 -3.34883,-1.71531 -4.23741,-1.7429 z"
         id="path5201-72-4-3" />
      <path
         style="fill:#f8db01;fill-opacity:1;stroke:#000000;stroke-width:0.276106px;stroke-linecap:butt;stroke-linejoin:miter;stroke-opacity:0"
         d="m -757.56901,472.2762 c 0.24067,2.53688 -0.69957,4.75697 -4.90316,5.75465 0.60728,-1.32679 1.85496,-2.42607 0.56589,-4.17889 -0.68071,-2.06644 3.44807,-1.58282 4.33727,-1.57576 z"
         id="path5201-0-8-4" />
      <path
         style="fill:#f8db01;fill-opacity:1;stroke:#000000;stroke-width:0.276106px;stroke-linecap:butt;stroke-linejoin:miter;stroke-opacity:0"
         d="m -656.93503,470.97579 c -2.60319,-1.44279 -5.03465,-2.14617 -8.21912,0.27756 1.73,0.24441 3.53765,-0.0712 4.77186,1.70698 1.10667,0.44263 2.08686,0.41716 2.72101,0.14198 0.76137,-0.33035 0.83951,-1.39968 0.72625,-2.12652 z"
         id="path5201-6-49-0" />
      <path
         style="fill:#f8db01;fill-opacity:1;stroke:#000000;stroke-width:0.276106px;stroke-linecap:butt;stroke-linejoin:miter;stroke-opacity:0"
         d="m -668.57853,474.93621 c -3.10176,0.48807 -5.51008,1.80821 -5.58666,5.33563 1.42731,-0.82414 2.41166,-2.08482 4.85354,-1.55068 2.65553,-0.0215 0.97816,-3.09678 0.73312,-3.78495 z"
         id="path5201-75-9-0" />
      <path
         style="fill:#f8db01;fill-opacity:1;stroke:#000000;stroke-width:0.276106px;stroke-linecap:butt;stroke-linejoin:miter;stroke-opacity:0"
         d="m -663.24338,481.59202 c -2.60938,1.43555 -4.17316,3.41463 -2.51102,6.67902 0.90621,-1.21127 1.19126,-2.68253 3.69644,-2.96911 2.4286,-0.8649 -0.62238,-3.15578 -1.18542,-3.70991 z"
         id="path5201-1-2-5" />
      <path
         style="fill:#f8db01;fill-opacity:1;stroke:#000000;stroke-width:0.276106px;stroke-linecap:butt;stroke-linejoin:miter;stroke-opacity:0"
         d="m -644.35163,479.60224 c 0.90444,2.43786 0.57147,4.76801 -3.27301,6.46167 0.24333,-1.40036 1.17255,-2.68787 -0.54955,-4.1803 -0.75892,-2.26017 2.12409,-3.53011 3.82256,-2.28137 z"
         id="path5201-00-5-3" />
      <path
         style="fill:#f8db01;fill-opacity:1;stroke:#000000;stroke-width:0.276106px;stroke-linecap:butt;stroke-linejoin:miter;stroke-opacity:0"
         d="m -678.16016,457.30845 -0.28294,-2.50564 c -1.57984,-0.15506 -3.15969,-0.12442 -4.73952,-2.33482 -4.60722,-0.34585 -5.92379,-0.60037 -15.42115,-1.08198 -1.36762,0.84781 -2.73523,1.02652 -4.10285,0.96808 -4.19719,1.77828 -8.39438,3.16188 -12.59157,7.11831 -2.51776,1.57173 -4.1151,1.74393 -3.25402,-1.82228 -2.0925,0.51277 -4.88321,0.16083 -4.66881,3.53068 -6.94609,-0.11492 -6.5469,3.71226 -9.47897,5.75161 3.75634,-0.86389 7.36286,-1.92088 10.18643,-3.98626 -1.18466,1.78106 -3.22203,3.5093 0.28294,5.58074 0.42588,-1.49841 1.29595,-2.63922 2.47585,-3.53067 2.60305,2.80413 6.08836,2.41242 9.40834,2.61955 -5.63213,1.82624 -10.0994,4.99209 -14.43081,8.31418 -2.88811,1.55305 -6.13756,1.03593 -5.02246,-2.10702 6.34489,-1.95873 4.61959,-4.96975 0.28294,-3.98625 -2.28723,3.17193 -4.57447,2.37912 -6.8617,0.74032 -0.77002,0.4938 -1.97864,2.04602 1.06112,3.70151 l -2.05146,0 c -0.28145,-1.77369 -0.91199,-4.93051 -4.31507,-2.22093 0.5426,1.83838 -0.84973,3.0209 -3.8907,3.64458 l 0.35373,1.53757 2.05139,-0.91115 2.40519,-0.45558 2.26361,1.13894 -0.91961,0.11388 -1.06106,-0.68335 -1.34406,0 c -1.71624,0.59632 -3.79256,0.92345 -2.97101,3.41679 3.1961,-1.45956 6.5755,-0.61913 6.0128,3.92932 5.31297,0.18368 6.68113,-1.68745 5.58843,-4.84046 l 1.344,2.22091 0.84889,-0.0569 0.21217,-2.27786 0.56595,0.11391 0.63667,1.3667 1.41478,0 0.14144,-1.42365 0.49516,0 0.63668,1.82229 c -2.82507,4.09054 3.13511,2.67953 2.3344,1.48061 2.65247,-3.22011 5.17542,-3.10366 7.63982,-1.48061 3.90968,-0.91939 2.39824,-2.41808 -1.20257,-3.01816 l 2.47585,0 1.5563,1.19587 c 1.81813,0.0676 3.34584,-1.11165 4.59808,-3.47375 l 0.28294,2.50567 c 1.34802,-0.70478 2.14696,-1.72488 4.14438,-2.02545 1.58222,-0.2381 2.38239,-1.72042 2.85877,-3.21364 0.20453,1.29078 -0.40641,2.58158 1.34407,3.87235 0.99911,-1.74255 1.26042,-4.21013 4.68656,-4.28077 1.51342,-0.0312 1.69665,-1.94461 2.03364,-3.00837 0.41975,0.88531 0.85141,1.76872 2.1929,2.50565 1.24189,-1.10097 0.83766,-2.20194 1.06111,-3.3029 0.69488,2.8573 3.03268,5.30944 6.08354,1.76533 -3.23715,0.70165 -3.3223,-0.49975 -2.82958,-2.05007 3.32583,0.53932 5.34544,0.0824 5.09326,-2.10702 -1.50913,1.07803 -3.01818,1.11903 -4.52731,0.68337 -0.22828,-1.03458 -1.35182,-2.61096 -3.29138,-2.37385 -3.1102,0.38021 -4.39125,-0.49123 -5.90473,-1.27074 3.55317,-0.0498 6.41963,-1.20529 8.2765,-3.98626 -0.20984,0.6117 -0.41478,1.2224 0.84883,1.53757 0.34693,-0.98005 1.04574,-1.73352 2.33441,-2.10702 0.33358,0.7111 -0.26511,1.6099 1.41477,2.05007 -0.0184,-2.40217 3.2087,-2.40941 5.2347,-3.30289 z"
         id="path5279-5-1" />
      <path
         style="fill:#f8db01;fill-opacity:1;stroke:#000000;stroke-width:0.276106px;stroke-linecap:butt;stroke-linejoin:miter;stroke-opacity:0"
         d="m -730.28092,469.84301 c -2.08875,-1.90939 -4.71986,-2.91697 -8.5414,-1.19005 1.60414,0.57604 3.45284,0.62399 4.11238,2.5906 1.36306,1.83474 3.81468,-0.88296 4.42902,-1.40055 z"
         id="path5201-60-3-0" />
      <path
         style="fill:#f8db01;fill-opacity:1;stroke:#000000;stroke-width:0.276106px;stroke-linecap:butt;stroke-linejoin:miter;stroke-opacity:0"
         d="m -741.87976,472.22462 c -2.8336,-1.12685 -5.74294,-1.25356 -8.46211,1.51321 1.75572,0.0419 3.4883,-0.47952 5.02696,1.13761 2.12715,1.27982 3.11136,-1.9841 3.43515,-2.65082 z"
         id="path5201-17-3-6" />
      <path
         style="fill:#f8db01;fill-opacity:1;stroke:#000000;stroke-width:0.276106px;stroke-linecap:butt;stroke-linejoin:miter;stroke-opacity:0"
         d="m -744.71274,480.18557 c 3.25763,-0.76473 5.54683,-0.47993 5.35217,2.49657 -1.76484,0.44794 -3.13144,1.17873 -2.65111,3.22138 -4.68881,-1.69804 -3.75157,-3.70489 -2.70106,-5.71795 z"
         id="path5308-3-7" />
      <path
         style="fill:#f8db01;fill-opacity:1;stroke:#000000;stroke-width:0.276106px;stroke-linecap:butt;stroke-linejoin:miter;stroke-opacity:0"
         d="m -718.2089,480.49858 c -0.0238,2.5442 -1.1918,4.69309 -5.48435,5.40398 0.74306,-1.28122 2.10074,-2.29254 0.99844,-4.12608 -0.46338,-2.10505 3.60054,-1.34488 4.48591,-1.2779 z"
         id="path5201-9-7-5" />
    </g>
    <rect
       y="30.760454"
       x="-1295.7635"
       height="29.447001"
       width="76.073997"
       id="rect5490"
       style="opacity:1;fill:#f8db01;fill-opacity:1;stroke:none;stroke-width:3;stroke-miterlimit:4;stroke-dasharray:none;stroke-opacity:0.74883722" />
    <rect
       y="30.760454"
       x="-665.0885"
       height="29.447001"
       width="76.073997"
       id="rect5490-3"
       style="opacity:1;fill:#f8db01;fill-opacity:1;stroke:none;stroke-width:3;stroke-miterlimit:4;stroke-dasharray:none;stroke-opacity:0.74883722" />
    <rect
       y="248.76445"
       x="-665.0885"
       height="29.447001"
       width="76.073997"
       id="rect5490-2"
       style="opacity:1;fill:#f8db01;fill-opacity:1;stroke:none;stroke-width:3;stroke-miterlimit:4;stroke-dasharray:none;stroke-opacity:0.74883722" />
    <rect
       y="248.24146"
       x="-1295.7635"
       height="29.447001"
       width="76.073997"
       id="rect5490-0"
       style="opacity:1;fill:#f8db01;fill-opacity:1;stroke:none;stroke-width:3;stroke-miterlimit:4;stroke-dasharray:none;stroke-opacity:0.74883722" />
    <rect
       y="453.35245"
       x="-982.88049"
       height="29.447001"
       width="76.073997"
       id="rect5490-2-9"
       style="opacity:1;fill:#f8db01;fill-opacity:1;stroke:none;stroke-width:3;stroke-miterlimit:4;stroke-dasharray:none;stroke-opacity:0.74883722" />
  </g>
</svg>
