<?xml version="1.0" encoding="UTF-8" standalone="no"?>
<!-- Creator: CorelDRAW -->
<svg
   xmlns:dc="http://purl.org/dc/elements/1.1/"
   xmlns:cc="http://web.resource.org/cc/"
   xmlns:rdf="http://www.w3.org/1999/02/22-rdf-syntax-ns#"
   xmlns:svg="http://www.w3.org/2000/svg"
   xmlns="http://www.w3.org/2000/svg"
   xmlns:sodipodi="http://sodipodi.sourceforge.net/DTD/sodipodi-0.dtd"
   xmlns:inkscape="http://www.inkscape.org/namespaces/inkscape"
   xml:space="preserve"
   width="744.09448"
   height="894.17975"
   style="shape-rendering:geometricPrecision; text-rendering:geometricPrecision; image-rendering:optimizeQuality; fill-rule:evenodd; clip-rule:evenodd"
   viewBox="0 0 210 297"
   id="svg2"
   sodipodi:version="0.32"
   inkscape:version="0.45.1"
   sodipodi:docname="POL Wilamowice COA.svg"
   inkscape:output_extension="org.inkscape.output.svg.inkscape"
   sodipodi:docbase="C:\Users\Mistrz\Desktop\Nowy folder (3)"
   version="1.0"><metadata
   id="metadata25"><rdf:RDF><cc:Work
       rdf:about=""><dc:format>image/svg+xml</dc:format><dc:type
         rdf:resource="http://purl.org/dc/dcmitype/StillImage" /></cc:Work></rdf:RDF></metadata><sodipodi:namedview
   inkscape:window-height="480"
   inkscape:window-width="640"
   inkscape:pageshadow="2"
   inkscape:pageopacity="0.0"
   guidetolerance="10.0"
   gridtolerance="10.0"
   objecttolerance="10.0"
   borderopacity="1.0"
   bordercolor="#666666"
   pagecolor="#ffffff"
   id="base" />
 <defs
   id="defs4">
  <style
   type="text/css"
   id="style6">
   
    .fil0 {fill:#0A0B0C}
    .fil2 {fill:#FFF500}
    .fil1 {fill:#0554EC}
   
  </style>
 </defs>
 <g
   id="Warstwa_x0020_1"
   transform="matrix(1.1767529,0,0,1.1767529,-18.574858,-26.252494)">
  <metadata
   id="CorelCorpID_0Corel-Layer" />
  <g
   id="_75134408">
   <path
   id="_75135272"
   class="fil0"
   d="M 0.0001,22.3413 L 210.0001,22.3413 L 210.0001,168.3953 C 210.0001,216.968 176.6578,272.8653 108.8011,274.6593 C 42.0995,276.422 0.0001,218.7098 0.0001,168.3953 L 0.0001,22.3413 L 0.0001,22.3413 z "
   style="fill:#0a0b0c" />
   <path
   id="_75135200"
   class="fil1"
   d="M 2.0589,24.8149 L 207.9409,24.8149 L 207.9409,168.0049 C 207.9409,215.6252 175.2523,270.4269 108.7262,272.1849 C 43.3325,273.913 2.0582,217.3325 2.0582,168.0049 L 2.0582,24.8149 L 2.0589,24.8149 z "
   style="fill:#0554ec" />
   <polygon
   id="_75135128"
   class="fil0"
   points="57.6437,79.6326 79.9749,114.824 82.8938,111.393 66.0319,77.1309 75.3029,72.716 87.6158,105.84 91.249,101.568 82.808,66.0938 91.9319,59.9131 97.1248,94.6595 102.083,88.8299 99.7314,39.3108 113.123,39.3108 111.097,89.8485 115.511,95.0385 121.511,59.3245 131.224,69.6256 121.813,102.449 125.264,106.507 138.287,74.7762 147.705,79.3383 130.391,112.535 133.417,116.093 156.682,82.2814 170.515,83.3116 137.712,121.143 140.211,124.082 182.288,84.9303 190.97,93.6127 144.314,128.906 146.016,130.907 180.081,113.038 180.081,123.78 149.558,135.071 151.618,137.494 180.669,131.874 183.171,140.41 156.014,142.663 159.017,146.194 186.114,148.945 192.589,158.952 166.114,154.54 172.828,162.434 200.094,172.196 196.563,182.939 163.836,167.735 151.707,167.735 182.435,187.942 171.398,192.946 139.239,167.735 134.568,167.735 162.863,197.507 153.592,202.364 126.724,167.735 123.222,167.735 146.087,207.073 137.846,213.401 117.848,167.735 115.035,167.735 131.224,220.464 121.217,229.441 110.236,167.735 108.689,167.735 113.123,255.488 98.2598,255.488 103.1,167.735 102.286,167.735 90.3132,226.645 81.3364,217.521 97.4671,167.735 94.4903,167.735 74.7143,211.341 65.7375,204.571 88.8083,167.735 84.794,167.735 57.4965,199.273 49.6971,194.123 76.3338,167.735 69.4709,167.735 40.2789,189.561 28.8004,183.822 56.2316,167.735 42.421,167.735 13.6429,179.407 10.2583,168.959 42.5781,158.797 48.3659,151.991 21.5896,154.684 27.9174,144.383 55.3106,143.826 58.1666,140.467 31.1549,137.172 32.4795,128.195 62.1976,135.727 64.1777,133.399 32.9209,119.954 32.3323,108.182 67.9853,128.922 69.785,126.806 22.6197,90.5224 30.5663,80.5155 73.4005,122.555 75.6567,119.902 45.4295,81.1041 57.6437,79.6326 "
   style="fill:#0a0b0c" />
   <path
   id="_75135056"
   class="fil2"
   d="M 106.241,85.7223 L 174.4904,166.2585 L 37.9914,166.2585 L 106.2412,85.7223 L 106.241,85.7223 z M 122.3047,61.6244 L 116.5349,96.243 L 121.1122,101.6251 L 130.0149,69.8434 L 122.3047,61.6244 L 122.3047,61.6244 z M 138.9633,76.1945 L 125.9972,107.3688 L 129.7614,111.795 L 146.4352,79.6422 L 138.9633,76.1945 z M 157.44,83.2927 L 168.4948,84.1929 L 136.8885,120.175 L 134.2221,117.0398 L 157.44,83.2927 z M 182.4529,86.2814 L 189.4658,93.5148 L 143.5316,127.9861 L 141.7466,125.8872 L 140.7524,124.7183 L 182.4529,86.2814 L 182.4529,86.2814 z M 179.2436,114.8273 L 179.2436,123.0143 L 148.9381,134.3434 L 147.0698,132.1463 L 179.2436,114.8273 L 179.2436,114.8273 z M 185.4416,149.8773 L 190.2983,157.5697 L 164.915,153.1295 L 160.2147,147.6029 L 185.4416,149.8773 z M 179.9907,133.0657 L 181.6381,139.4168 L 154.7869,141.2205 L 152.4633,138.4884 L 179.9907,133.0657 z M 195.9022,181.5471 L 166.9202,167.7351 L 177.3363,167.7351 L 173.5904,163.3307 L 198.6525,172.9369 L 195.9022,181.5471 L 195.9022,181.5471 z M 180.3644,187.763 L 171.6187,191.6342 L 140.8461,167.7351 L 149.7707,167.7351 L 180.3644,187.763 L 180.3644,187.763 z M 161.1581,197.238 L 153.6864,200.9739 L 128.2486,167.7351 L 132.4513,167.7351 L 161.1581,197.238 z M 144.7202,206.9513 L 138.3016,212.0287 L 119.0992,167.7351 L 121.8724,167.7351 L 144.7202,206.9513 z M 130.1502,220.0271 L 122.2529,227.4471 L 111.4676,167.7351 L 113.7189,167.7351 L 130.1502,220.0271 z M 107.4418,167.7351 L 112.005,254.6102 L 99.4527,254.7711 L 104.6318,167.7351 L 106.1564,167.7351 L 107.4418,167.7351 z M 112.2177,40.3301 L 110.1772,88.7679 L 106.1564,84.0403 L 103.0017,87.7495 L 101.01,40.3301 L 112.2177,40.3301 L 112.2177,40.3301 z M 90.9231,61.6248 L 95.8893,96.1125 L 92.2873,100.3474 L 84.1465,66.4648 L 90.9231,61.6248 L 90.9231,61.6248 z M 74.916,74.1031 L 86.7872,106.8147 L 83.4329,110.7588 L 67.4441,77.5746 L 74.916,74.1031 L 74.916,74.1031 z M 57.1963,80.8795 L 47.2757,81.9486 L 76.4951,118.9161 L 79.1539,115.7899 L 57.1963,80.8795 z M 30.9357,82.0983 L 24.4294,90.2656 L 70.1566,126.369 L 70.566,125.8876 L 72.6136,123.48 L 30.9357,82.0983 L 30.9357,82.0983 z M 33.3327,110.0086 L 33.9763,119.0949 L 65.0311,132.3958 L 67.165,129.8864 L 33.3327,110.0086 L 33.3327,110.0086 z M 28.7515,145.2352 L 23.7339,153.7242 L 49.3573,150.8257 L 53.9073,145.4758 L 28.7515,145.2352 L 28.7515,145.2352 z M 33.39,129.5499 L 32.3783,136.2229 L 58.8725,139.6374 L 61.2438,136.8491 L 33.39,129.5499 z M 14.4292,178.1686 L 39.4589,167.7355 L 34.9764,167.7355 L 40.8932,160.7784 L 11.7106,169.6796 L 14.4292,178.1686 L 14.4292,178.1686 z M 30.7637,183.7725 L 40.4826,188.4164 L 68.128,167.7355 L 58.8437,167.7355 L 30.7637,183.7725 L 30.7637,183.7725 z M 51.5868,193.8594 L 57.4496,197.9172 L 83.376,167.7355 L 77.7207,167.7355 L 51.5868,193.8594 L 51.5868,193.8594 z M 67.3813,204.2164 L 74.2668,209.7685 L 93.3672,167.7355 L 90.153,167.7355 L 67.3813,204.2164 z M 82.595,217.453 L 89.8485,224.7122 L 100.9006,167.7355 L 98.6882,167.7355 L 82.595,217.453 z "
   style="fill:#fff500" />
   <path
   id="_75134984"
   class="fil0"
   d="M 63.3608,147.492 C 70.639,142.7712 77.9649,138.3361 83.4458,132.7124 C 87.7189,128.3278 91.5138,125.0413 96.2042,123.3647 C 102.1217,121.2496 108.154,120.9145 114.268,122.8594 C 123.645,125.8426 125.6371,130.0783 130.437,134.7336 C 135.6156,139.7562 139.182,139.4202 142.5637,143.4497 C 144.5384,145.8024 141.8956,149.2014 139.6585,149.0078 C 137.9003,148.8559 136.4791,148.0387 134.4794,148.1235 C 135.2366,147.1113 134.5066,145.4565 132.7108,145.976 C 131.3993,146.5642 131.9475,147.7438 133.3424,149.0078 C 127.4895,151.3235 123.1621,155.2823 116.9207,157.4712 C 107.7554,160.6858 102.3059,161.6153 95.4463,157.9765 C 90.7123,155.4656 84.8171,153.7624 79.4035,152.2921 C 76.3563,151.4645 73.6826,148.9808 69.9296,152.2921 C 68.602,153.4633 66.2659,153.5971 65.0031,152.6712 C 62.6451,151.2814 61.5242,148.6831 63.3608,147.492 L 63.3608,147.492 z "
   style="fill:#0a0b0c" />
   <circle
   id="_75134912"
   class="fil2"
   cx="106.248"
   cy="144.252"
   r="7.39539"
   sodipodi:cx="106.248"
   sodipodi:cy="144.252"
   sodipodi:rx="7.39539"
   sodipodi:ry="7.39539"
   style="fill:#fff500" />
   <circle
   id="_75134840"
   class="fil0"
   cx="106.15"
   cy="143.576"
   r="4.5836802"
   sodipodi:cx="106.15"
   sodipodi:cy="143.576"
   sodipodi:rx="4.5836802"
   sodipodi:ry="4.5836802"
   style="fill:#0a0b0c" />
   <path
   id="_75134768"
   class="fil2"
   d="M 67.4032,146.861 C 73.451,144.8738 81.5827,137.1006 87.8671,130.9445 C 94.0144,124.4603 100.5624,122.8271 107.8257,123.1126 C 118.8625,123.5467 125.8981,134.7385 135.2373,140.0396 C 138.68,141.9939 142.1693,143.4895 141.6796,145.724 C 141.151,148.137 138.5145,147.7997 135.4899,146.103 C 127.0952,141.3948 119.1181,136.2165 109.5941,135.6184 C 101.6651,135.1206 93.5485,135.395 80.7931,144.3346 C 77.5117,146.6342 73.3426,148.5797 69.0452,151.0295 C 64.4466,153.6513 63.8312,148.0346 67.4032,146.861 L 67.4032,146.861 z "
   style="fill:#fff500" />
   <path
   id="_75134696"
   class="fil2"
   d="M 119.447,140.292 C 120.6473,145.1343 119.9737,149.9761 116.7944,154.8189 C 121.6365,154.44 126.1416,152.5451 130.3107,149.1345 L 130.4369,144.4606 C 126.7736,143.0712 123.1103,140.1658 119.447,140.292 z "
   style="fill:#fff500" />
   <path
   id="_75134624"
   class="fil2"
   d="M 115.818,137.766 C 117.6101,139.9308 118.6895,142.7055 118.6895,145.7241 C 118.6895,152.6121 113.0717,158.2298 106.1837,158.2298 C 99.2959,158.2298 93.678,152.6121 93.678,145.7241 C 93.678,142.7055 94.5049,139.9308 96.2968,137.766 C 98.0812,137.2607 99.6972,137.2607 101.144,137.766 C 99.2156,139.2832 97.973,141.637 97.973,144.2715 C 97.973,148.8287 101.6897,152.5454 106.2469,152.5454 C 110.8042,152.5454 114.5209,148.8287 114.5209,144.2715 C 114.5209,141.637 113.2783,139.2832 111.3499,137.766 C 112.5019,137.2605 113.9911,137.2604 115.818,137.766 L 115.818,137.766 z "
   style="fill:#fff500" />
   <path
   id="_75134552"
   class="fil2"
   d="M 81.6774,144.839 L 81.6774,151.1549 C 86.3929,152.1861 91.4035,154.0385 96.4569,156.0814 C 92.9612,151.7655 91.0242,146.5862 92.9198,139.9125 C 90.246,139.7652 86.372,141.6179 81.6774,144.839 z "
   style="fill:#fff500" />
   <path
   id="_75134480"
   class="fil2"
   d="M 74.856,149.134 C 76.4137,148.1657 77.9716,147.3659 79.5299,146.7338 C 80.2876,147.9551 80.6242,149.3445 80.0352,150.9024 C 77.9716,150.4813 76.2451,149.8915 74.856,149.134 L 74.856,149.134 z "
   style="fill:#fff500" />
   <path
   id="_75134336"
   class="fil2"
   d="M 106.183,139.913 C 108.1312,139.913 109.7201,141.5018 109.7201,143.4499 C 109.7201,145.398 108.1312,146.9868 106.183,146.9868 C 104.2349,146.9868 102.6461,145.398 102.6461,143.4499 C 102.6461,141.5018 104.2349,139.913 106.183,139.913 z "
   style="fill:#fff500" />
  </g>
 </g>
</svg>